<svg xmlns="http://www.w3.org/2000/svg" fill="none" viewBox="0 0 50 50" id="holy_enhancer">
	<path d="M18.343 29.04c-.316-3.029.856-5.388 1.465-5.825l-4.657.38-3.267 5.537c.072.664 1.805 3.717 3.585 5.73 2.33 2.636 4.63 4.585 5.68 5.339l1.574-1.28c-1.84-2.632-4.126-7.437-4.38-9.881Z" fill="#546DDB"></path><path d="M18.343 29.04c-.316-3.029.856-5.388 1.465-5.825l-4.657.38-3.267 5.537c.072.664 1.805 3.717 3.585 5.73 2.33 2.636 4.63 4.585 5.68 5.339l1.574-1.28c-1.84-2.632-4.126-7.437-4.38-9.881Z" fill="#fff" fill-opacity=".6"></path><path d="M12.898 49.502h-10.4c.02-6.26.395-11.437 1.179-15.597.805-4.275 2.035-7.437 3.716-9.599 1.732-2.227 3.069-3.512 4.202-4.325 1.126-.807 2.072-1.164 3.069-1.51.433-.151 1.308-.268 2.443-.349a68.373 68.373 0 0 1 3.658-.137 139.754 139.754 0 0 1 4.237.004v6.012l-.38-.002c-1.628-.007-3.506-.015-5.248.174-2.043.221-4.045.725-5.25 1.948-1.184 1.203-1.715 2.514-1.947 4.235-.19 1.406-.185 3.123-.178 5.302.001.429.003.876.003 1.342 0 3.87.455 8.228.735 10.912.066.632.122 1.172.16 1.59Z" fill="#546DDB"></path><path d="M12.898 49.502h-10.4c.02-6.26.395-11.437 1.179-15.597.805-4.275 2.035-7.437 3.716-9.599 1.732-2.227 3.069-3.512 4.202-4.325 1.126-.807 2.072-1.164 3.069-1.51.433-.151 1.308-.268 2.443-.349a68.373 68.373 0 0 1 3.658-.137 139.754 139.754 0 0 1 4.237.004v6.012l-.38-.002c-1.628-.007-3.506-.015-5.248.174-2.043.221-4.045.725-5.25 1.948-1.184 1.203-1.715 2.514-1.947 4.235-.19 1.406-.185 3.123-.178 5.302.001.429.003.876.003 1.342 0 3.87.455 8.228.735 10.912.066.632.122 1.172.16 1.59Z" fill="#000" fill-opacity=".4"></path><path d="M12.898 49.502h-10.4c.02-6.26.395-11.437 1.179-15.597.805-4.275 2.035-7.437 3.716-9.599 1.732-2.227 3.069-3.512 4.202-4.325 1.126-.807 2.072-1.164 3.069-1.51.433-.151 1.308-.268 2.443-.349a68.373 68.373 0 0 1 3.658-.137 139.754 139.754 0 0 1 4.237.004v6.012l-.38-.002c-1.628-.007-3.506-.015-5.248.174-2.043.221-4.045.725-5.25 1.948-1.184 1.203-1.715 2.514-1.947 4.235-.19 1.406-.185 3.123-.178 5.302.001.429.003.876.003 1.342 0 3.87.455 8.228.735 10.912.066.632.122 1.172.16 1.59Z" stroke="#546DDB" stroke-width=".996"></path><path d="M12.898 49.502h-10.4c.02-6.26.395-11.437 1.179-15.597.805-4.275 2.035-7.437 3.716-9.599 1.732-2.227 3.069-3.512 4.202-4.325 1.126-.807 2.072-1.164 3.069-1.51.433-.151 1.308-.268 2.443-.349a68.373 68.373 0 0 1 3.658-.137 139.754 139.754 0 0 1 4.237.004v6.012l-.38-.002c-1.628-.007-3.506-.015-5.248.174-2.043.221-4.045.725-5.25 1.948-1.184 1.203-1.715 2.514-1.947 4.235-.19 1.406-.185 3.123-.178 5.302.001.429.003.876.003 1.342 0 3.87.455 8.228.735 10.912.066.632.122 1.172.16 1.59Z" stroke="#fff" stroke-opacity=".6" stroke-width=".996"></path><path d="m38.32 1.59-.087.307c-.894 3.15-2.731 9.624-2.731 19.103 0 9.655 1.904 16.589 2.785 19.409-.427-.107-.879-.306-1.353-.587-.744-.442-1.51-1.07-2.276-1.806-1.323-1.27-2.6-2.813-3.735-4.183l-.54-.652c-1.222-1.466-2.61-3.682-3.703-5.552a95.124 95.124 0 0 1-1.726-3.09c-.033-.06-.06-.112-.08-.152v-6.609l.099-.175.45-.785c.38-.661.905-1.568 1.49-2.553 1.174-1.977 2.567-4.241 3.485-5.466.931-1.241 2.412-3.091 4.024-4.626.806-.767 1.632-1.444 2.428-1.927.525-.318 1.018-.54 1.47-.655Z" fill="#546DDB"></path><path d="m38.32 1.59-.087.307c-.894 3.15-2.731 9.624-2.731 19.103 0 9.655 1.904 16.589 2.785 19.409-.427-.107-.879-.306-1.353-.587-.744-.442-1.51-1.07-2.276-1.806-1.323-1.27-2.6-2.813-3.735-4.183l-.54-.652c-1.222-1.466-2.61-3.682-3.703-5.552a95.124 95.124 0 0 1-1.726-3.09c-.033-.06-.06-.112-.08-.152v-6.609l.099-.175.45-.785c.38-.661.905-1.568 1.49-2.553 1.174-1.977 2.567-4.241 3.485-5.466.931-1.241 2.412-3.091 4.024-4.626.806-.767 1.632-1.444 2.428-1.927.525-.318 1.018-.54 1.47-.655Z" fill="#000" fill-opacity=".4"></path><path d="m38.32 1.59-.087.307c-.894 3.15-2.731 9.624-2.731 19.103 0 9.655 1.904 16.589 2.785 19.409-.427-.107-.879-.306-1.353-.587-.744-.442-1.51-1.07-2.276-1.806-1.323-1.27-2.6-2.813-3.735-4.183l-.54-.652c-1.222-1.466-2.61-3.682-3.703-5.552a95.124 95.124 0 0 1-1.726-3.09c-.033-.06-.06-.112-.08-.152v-6.609l.099-.175.45-.785c.38-.661.905-1.568 1.49-2.553 1.174-1.977 2.567-4.241 3.485-5.466.931-1.241 2.412-3.091 4.024-4.626.806-.767 1.632-1.444 2.428-1.927.525-.318 1.018-.54 1.47-.655Z" stroke="#546DDB" stroke-width=".996"></path><path d="m38.32 1.59-.087.307c-.894 3.15-2.731 9.624-2.731 19.103 0 9.655 1.904 16.589 2.785 19.409-.427-.107-.879-.306-1.353-.587-.744-.442-1.51-1.07-2.276-1.806-1.323-1.27-2.6-2.813-3.735-4.183l-.54-.652c-1.222-1.466-2.61-3.682-3.703-5.552a95.124 95.124 0 0 1-1.726-3.09c-.033-.06-.06-.112-.08-.152v-6.609l.099-.175.45-.785c.38-.661.905-1.568 1.49-2.553 1.174-1.977 2.567-4.241 3.485-5.466.931-1.241 2.412-3.091 4.024-4.626.806-.767 1.632-1.444 2.428-1.927.525-.318 1.018-.54 1.47-.655Z" stroke="#fff" stroke-opacity=".6" stroke-width=".996"></path><ellipse cx="38.5" cy="21" rx="3" ry="20" fill="#546DDB"></ellipse><ellipse cx="38.5" cy="21" rx="3" ry="20" fill="#fff" fill-opacity=".6"></ellipse><path d="M35.5 20h7v2.5h-7V20Z" fill="#546DDB"></path><path d="M35.5 20h7v2.5h-7V20Z" fill="#000" fill-opacity=".4"></path><path d="M48.502 21a3.502 3.502 0 1 1-7.004 0 3.502 3.502 0 0 1 7.004 0Z" fill="#546DDB"></path><path d="M48.502 21a3.502 3.502 0 1 1-7.004 0 3.502 3.502 0 0 1 7.004 0Z" fill="#000" fill-opacity=".4"></path><path d="M48.502 21a3.502 3.502 0 1 1-7.004 0 3.502 3.502 0 0 1 7.004 0Z" stroke="#546DDB" stroke-width=".996"></path><path d="M48.502 21a3.502 3.502 0 1 1-7.004 0 3.502 3.502 0 0 1 7.004 0Z" stroke="#fff" stroke-opacity=".6" stroke-width=".996"></path><path d="M31.113 19.546c-.56-.582-.7-1.819-1.05-2.546-.35.727-.35 1.818-1.05 2.546-.627.65-1.4 1.09-2.45 1.454 1.05.364 1.89.873 2.45 1.454.56.582.816 1.819 1.05 2.546.233-.849.423-1.895 1.05-2.546.7-.727 1.4-1.09 2.45-1.454-.7-.364-1.75-.727-2.45-1.454Z" fill="#FAA21E"></path><path d="M31.113 19.546c-.56-.582-.7-1.819-1.05-2.546-.35.727-.35 1.818-1.05 2.546-.627.65-1.4 1.09-2.45 1.454 1.05.364 1.89.873 2.45 1.454.56.582.816 1.819 1.05 2.546.233-.849.423-1.895 1.05-2.546.7-.727 1.4-1.09 2.45-1.454-.7-.364-1.75-.727-2.45-1.454Z" fill="#fff" fill-opacity=".2"></path>
</svg>