<svg xmlns="http://www.w3.org/2000/svg" fill="none" viewBox="0 0 50 50" id="holy_enhancer">
	<path stroke="#FAA21E" stroke-width=".993" stroke-linecap="round" d="M24.952 7.894V2.451" />
	<path stroke="#fff" stroke-opacity=".4" stroke-width=".993" stroke-linecap="round" d="M24.952 7.894V2.451" />
	<path stroke="#FAA21E" stroke-width=".993" stroke-linecap="round" d="M24.952 47.674v-5.443" />
	<path stroke="#fff" stroke-opacity=".4" stroke-width=".993" stroke-linecap="round" d="M24.952 47.674v-5.443" />
	<path stroke="#FAA21E" stroke-width=".993" stroke-linecap="round" d="M47.291 25.097h-5.418" />
	<path stroke="#fff" stroke-opacity=".4" stroke-width=".993" stroke-linecap="round" d="M47.291 25.097h-5.418" />
	<path transform="matrix(-.49369 .86964 -.86802 -.49653 35.81 4.588)" stroke="#FAA21E" stroke-width=".993" stroke-linecap="round" d="M.496-.496h5.437" />
	<path transform="matrix(-.49369 .86964 -.86802 -.49653 35.81 4.588)" stroke="#fff" stroke-opacity=".4" stroke-width=".993" stroke-linecap="round" d="M.496-.496h5.437" />
	<path transform="matrix(-.8495 .5276 -.5247 -.85128 44.61 12.579)" stroke="#FAA21E" stroke-width=".993" stroke-linecap="round" d="M.496-.496H5.92" />
	<path transform="matrix(-.8495 .5276 -.5247 -.85128 44.61 12.579)" stroke="#fff" stroke-opacity=".4" stroke-width=".993" stroke-linecap="round" d="M.496-.496H5.92" />
	<path transform="matrix(-.87636 -.48166 .47885 -.8779 45.542 36.157)" stroke="#FAA21E" stroke-width=".993" stroke-linecap="round" d="M.496-.496H5.92" />
	<path transform="matrix(-.87636 -.48166 .47885 -.8779 45.542 36.157)" stroke="#fff" stroke-opacity=".4" stroke-width=".993" stroke-linecap="round" d="M.496-.496H5.92" />
	<path transform="matrix(-.5391 -.84225 .84038 -.542 37.323 44.662)" stroke="#FAA21E" stroke-width=".993" stroke-linecap="round" d="M.496-.496h5.436" />
	<path transform="matrix(-.5391 -.84225 .84038 -.542 37.323 44.662)" stroke="#fff" stroke-opacity=".4" stroke-width=".993" stroke-linecap="round" d="M.496-.496h5.436" />
	<path stroke="#FAA21E" stroke-width=".993" stroke-linecap="round" d="M2.536 25.154h5.418" />
	<path stroke="#fff" stroke-opacity=".4" stroke-width=".993" stroke-linecap="round" d="M2.536 25.154h5.418" />
	<path transform="matrix(.49369 -.86964 .86802 .49653 14.018 45.247)" stroke="#FAA21E" stroke-width=".993" stroke-linecap="round" d="M.496-.496h5.437" />
	<path transform="matrix(.49369 -.86964 .86802 .49653 14.018 45.247)" stroke="#fff" stroke-opacity=".4" stroke-width=".993" stroke-linecap="round" d="M.496-.496h5.437" />
	<path transform="matrix(.8495 -.5276 .5247 .85128 5.217 37.256)" stroke="#FAA21E" stroke-width=".993" stroke-linecap="round" d="M.496-.496H5.92" />
	<path transform="matrix(.8495 -.5276 .5247 .85128 5.217 37.256)" stroke="#fff" stroke-opacity=".4" stroke-width=".993" stroke-linecap="round" d="M.496-.496H5.92" />
	<path transform="rotate(28.794 -25.198 16.215) skewX(.184)" stroke="#FAA21E" stroke-width=".993" stroke-linecap="round" d="M.496-.496H5.92" />
	<path transform="rotate(28.794 -25.198 16.215) skewX(.184)" stroke="#fff" stroke-opacity=".4" stroke-width=".993" stroke-linecap="round" d="M.496-.496H5.92" />
	<path transform="matrix(.5391 .84225 -.84038 .542 12.505 5.173)" stroke="#FAA21E" stroke-width=".993" stroke-linecap="round" d="M.496-.496h5.436" />
	<path transform="matrix(.5391 .84225 -.84038 .542 12.505 5.173)" stroke="#fff" stroke-opacity=".4" stroke-width=".993" stroke-linecap="round" d="M.496-.496h5.436" />
	<path transform="rotate(-74.453 20.924 -15.18) skewX(-.113)" stroke="#FAA21E" stroke-width=".993" stroke-linecap="round" d="M.496-.496h8.191" />
	<path transform="rotate(-74.453 20.924 -15.18) skewX(-.113)" stroke="#fff" stroke-opacity=".4" stroke-width=".993" stroke-linecap="round" d="M.496-.496h8.191" />
	<path transform="rotate(-74.453 42.227 12.726) skewX(-.113)" stroke="#FAA21E" stroke-width=".993" stroke-linecap="round" d="M.496-.496h8.191" />
	<path transform="rotate(-74.453 42.227 12.726) skewX(-.113)" stroke="#fff" stroke-opacity=".4" stroke-width=".993" stroke-linecap="round" d="M.496-.496h8.191" />
	<path transform="rotate(-164.34 27.104 12.237) skewX(.113)" stroke="#FAA21E" stroke-width=".993" stroke-linecap="round" d="M.496-.496h8.161" />
	<path transform="rotate(-164.34 27.104 12.237) skewX(.113)" stroke="#fff" stroke-opacity=".4" stroke-width=".993" stroke-linecap="round" d="M.496-.496h8.161" />
	<path transform="matrix(-.70922 .70499 -.70229 -.7119 42.926 6.343)" stroke="#FAA21E" stroke-width=".993" stroke-linecap="round" d="M.496-.496h8.176" />
	<path transform="matrix(-.70922 .70499 -.70229 -.7119 42.926 6.343)" stroke="#fff" stroke-opacity=".4" stroke-width=".993" stroke-linecap="round" d="M.496-.496h8.176" />
	<path transform="rotate(163.799 23.529 12.404) skewX(-.116)" stroke="#FAA21E" stroke-width=".993" stroke-linecap="round" d="M.496-.496h8.161" />
	<path transform="rotate(163.799 23.529 12.404) skewX(-.116)" stroke="#fff" stroke-opacity=".4" stroke-width=".993" stroke-linecap="round" d="M.496-.496h8.161" />
	<path transform="matrix(-.7143 -.69984 .69712 -.71695 43.555 42.886)" stroke="#FAA21E" stroke-width=".993" stroke-linecap="round" d="M.496-.496h8.175" />
	<path transform="matrix(-.7143 -.69984 .69712 -.71695 43.555 42.886)" stroke="#fff" stroke-opacity=".4" stroke-width=".993" stroke-linecap="round" d="M.496-.496h8.175" />
	<path transform="rotate(-107.056 34.553 12.837) skewX(.123)" stroke="#FAA21E" stroke-width=".993" stroke-linecap="round" d="M.496-.496h8.19" />
	<path transform="rotate(-107.056 34.553 12.837) skewX(.123)" stroke="#fff" stroke-opacity=".4" stroke-width=".993" stroke-linecap="round" d="M.496-.496h8.19" />
	<path transform="rotate(15.66 -67.73 9.314) skewX(.113)" stroke="#FAA21E" stroke-width=".993" stroke-linecap="round" d="M.496-.496h8.161" />
	<path transform="rotate(15.66 -67.73 9.314) skewX(.113)" stroke="#fff" stroke-opacity=".4" stroke-width=".993" stroke-linecap="round" d="M.496-.496h8.161" />
	<path transform="matrix(.70922 -.70499 .70229 .7119 6.986 43.513)" stroke="#FAA21E" stroke-width=".993" stroke-linecap="round" d="M.496-.496h8.176" />
	<path transform="matrix(.70922 -.70499 .70229 .7119 6.986 43.513)" stroke="#fff" stroke-opacity=".4" stroke-width=".993" stroke-linecap="round" d="M.496-.496h8.176" />
	<path transform="rotate(-16.201 113.602 15.125) skewX(-.116)" stroke="#FAA21E" stroke-width=".993" stroke-linecap="round" d="M.496-.496h8.161" />
	<path transform="rotate(-16.201 113.602 15.125) skewX(-.116)" stroke="#fff" stroke-opacity=".4" stroke-width=".993" stroke-linecap="round" d="M.496-.496h8.161" />
	<path transform="matrix(.7143 .69984 -.69712 .71695 6.41 7.22)" stroke="#FAA21E" stroke-width=".993" stroke-linecap="round" d="M.496-.496h8.175" />
	<path transform="matrix(.7143 .69984 -.69712 .71695 6.41 7.22)" stroke="#fff" stroke-opacity=".4" stroke-width=".993" stroke-linecap="round" d="M.496-.496h8.175" />
	<path transform="rotate(72.948 8.606 11.925) skewX(.131)" stroke="#FAA21E" stroke-width=".993" stroke-linecap="round" d="M.496-.496h8.19" />
	<path transform="rotate(72.948 8.606 11.925) skewX(.131)" stroke="#fff" stroke-opacity=".4" stroke-width=".993" stroke-linecap="round" d="M.496-.496h8.19" />
	<path d="M18.343 29.04c-.316-3.029.856-5.388 1.465-5.825l-4.657.38-3.267 5.537c.072.664 1.805 3.717 3.585 5.73 2.33 2.636 4.63 4.585 5.68 5.339l1.574-1.28c-1.84-2.632-4.126-7.437-4.38-9.881Z" fill="#FAA21E" />
	<path d="M12.898 49.502h-10.4c.02-6.26.395-11.437 1.179-15.597.805-4.275 2.035-7.437 3.716-9.599 1.732-2.227 3.069-3.512 4.202-4.325 1.126-.807 2.072-1.164 3.069-1.51.433-.151 1.308-.268 2.443-.349a68.373 68.373 0 0 1 3.658-.137 139.754 139.754 0 0 1 4.237.004v6.012l-.38-.002c-1.628-.007-3.506-.015-5.248.174-2.043.221-4.045.725-5.25 1.948-1.184 1.203-1.715 2.514-1.947 4.235-.19 1.406-.185 3.123-.178 5.302.001.429.003.876.003 1.342 0 3.87.455 8.229.735 10.912.066.632.122 1.172.16 1.59Z" fill="#FEFEFE" stroke="#FAA21E" stroke-width=".996" />
	<path d="m38.32 1.59-.087.307c-.894 3.15-2.731 9.624-2.731 19.103 0 9.655 1.904 16.589 2.785 19.409-.427-.108-.879-.306-1.353-.587-.744-.442-1.51-1.07-2.276-1.806-1.323-1.27-2.6-2.813-3.735-4.183l-.54-.652c-1.222-1.466-2.61-3.682-3.703-5.552a95.124 95.124 0 0 1-1.726-3.09c-.033-.06-.06-.112-.08-.152v-6.609l.099-.175.45-.785c.38-.661.905-1.568 1.49-2.553 1.174-1.977 2.567-4.241 3.485-5.466.931-1.241 2.412-3.091 4.024-4.626.806-.767 1.632-1.444 2.428-1.927.525-.318 1.018-.54 1.47-.655Z" fill="#FEFEFE" stroke="#FAA21E" stroke-width=".996" />
	<ellipse cx="39" cy="21" rx="3" ry="20" fill="#FAA21E" />
	<path d="M48.502 21a3.502 3.502 0 1 1-7.004 0 3.502 3.502 0 0 1 7.004 0Z" fill="#FEFEFE" stroke="#FAA21E" stroke-width=".996" />
	<path d="M36 20h7v2.5h-7V20Z" fill="#FEFEFE" />
</svg>