<?xml version="1.0" encoding="UTF-8"?>
<svg xmlns="http://www.w3.org/2000/svg" xmlns:xlink="http://www.w3.org/1999/xlink"><symbol fill="none" viewBox="0 0 40 40" id="action_queue" xmlns="http://www.w3.org/2000/svg"><path d="M2 11V2l8 4.5L2 11Z" fill="#FAA21E"/><path stroke="#898989" stroke-width="6" d="M13 6h25"/><path stroke="#fff" stroke-opacity=".4" stroke-width="6" d="M13 6h25"/><path stroke="#898989" stroke-width="6" d="M13 34h25"/><path stroke="#fff" stroke-opacity=".4" stroke-width="6" d="M13 34h25"/><path stroke="#898989" stroke-width="6" d="M13 20h25"/><path stroke="#fff" stroke-opacity=".4" stroke-width="6" d="M13 20h25"/><circle cx="6" cy="20" r="3.5" fill="#898989"/><circle cx="6" cy="20" r="3.5" fill="#fff" fill-opacity=".4"/><circle cx="6" cy="20" r="3.5" stroke="#898989"/><circle cx="6" cy="20" r="3.5" stroke="#fff" stroke-opacity=".4"/><circle cx="6" cy="34" r="3.5" fill="#898989"/><circle cx="6" cy="34" r="3.5" fill="#fff" fill-opacity=".4"/><circle cx="6" cy="34" r="3.5" stroke="#898989"/><circle cx="6" cy="34" r="3.5" stroke="#fff" stroke-opacity=".4"/></symbol><symbol fill="none" viewBox="0 0 20 20" id="arrow_collapse" xmlns="http://www.w3.org/2000/svg"><path d="m2 5.5 8 8 8-8" stroke="#FEFEFE" stroke-width="4" stroke-linecap="round"/></symbol><symbol fill="none" viewBox="0 0 20 20" id="arrow_expand" xmlns="http://www.w3.org/2000/svg"><path d="m18 14.5-8-8-8 8" stroke="#FEFEFE" stroke-width="4" stroke-linecap="round"/></symbol><symbol fill="none" viewBox="0 0 40 40" id="buff" xmlns="http://www.w3.org/2000/svg"><path d="M1 17 14 2l13 15h-8v21H9V17H1Z" fill="#1D8CE0"/><path d="M1 17 14 2l13 15h-8v21H9V17H1Z" fill="#fff" fill-opacity=".6"/><path d="m18 23 10.5-11L39 23h-6v15h-9V23h-6Z" fill="#1D8CE0"/></symbol><symbol fill="none" viewBox="0 0 20 20" id="champion_star" xmlns="http://www.w3.org/2000/svg"><g clip-path="url(#aea)"><path d="m10 .5 2.357 7.255h7.63l-6.173 4.484 2.358 7.256L10 15.01l-6.172 4.484 2.358-7.256L.014 7.755h7.629L10 .5Z" fill="#FAA21E"/></g><defs><clipPath id="aea"><path fill="#fff" d="M0 0h20v20H0z"/></clipPath></defs></symbol><symbol fill="none" viewBox="0 0 20 20" id="checkbox_checked" xmlns="http://www.w3.org/2000/svg"><rect width="20" height="20" rx="2.5" fill="#2FC4A7"/><path d="m3.333 9 5 4.334L16 6" stroke="#898989" stroke-width="3"/><path d="m3.333 9 5 4.334L16 6" stroke="#000" stroke-opacity=".8" stroke-width="3"/></symbol><symbol fill="none" viewBox="0 0 20 20" id="checkbox_unchecked" xmlns="http://www.w3.org/2000/svg"><rect x="1" y="1" width="18" height="18" rx="1" stroke="#FEFEFE" stroke-width="2" stroke-linejoin="round"/></symbol><symbol fill="none" viewBox="0 0 40 40" id="close_menu" xmlns="http://www.w3.org/2000/svg"><rect x="3.427" y="-1.185" width="53.569" height="6.522" rx="3.261" transform="rotate(45 3.427 -1.185)" fill="#898989"/><rect x="3.427" y="-1.185" width="53.569" height="6.522" rx="3.261" transform="rotate(45 3.427 -1.185)" fill="#fff" fill-opacity=".95"/><rect x="-1.185" y="36.694" width="53.569" height="6.522" rx="3.261" transform="rotate(-45 -1.185 36.694)" fill="#898989"/><rect x="-1.185" y="36.694" width="53.569" height="6.522" rx="3.261" transform="rotate(-45 -1.185 36.694)" fill="#fff" fill-opacity=".95"/></symbol><symbol fill="none" viewBox="0 0 40 40" id="combat" xmlns="http://www.w3.org/2000/svg"><path d="M23.317 19 20 15.406l9.537-11.333L37 2l-2.488 7.463L23.317 19Z" fill="#1D8CE0"/><path d="M23.317 19 20 15.406l9.537-11.333L37 2l-2.488 7.463L23.317 19Z" fill="#fff" fill-opacity=".4"/><path d="m2 2 7.755 2.34L26.76 24.566l.053.051c2.616-1.398 5.669-.474 7.021.362l-3.107 3.443 6.509 6.327c.68.688 1.179 1.514.272 2.614-.907 1.101-2.041.55-2.721 0l-6.381-6.37-3.142 3.48c-1.03-1.44-2.418-4.705-.873-7.488l-.08-.08L4.45 9.707 2 2Z" fill="#898989"/><path d="m2 2 7.755 2.34L26.76 24.566l.053.051c2.616-1.398 5.669-.474 7.021.362l-3.107 3.443 6.509 6.327c.68.688 1.179 1.514.272 2.614-.907 1.101-2.041.55-2.721 0l-6.381-6.37-3.142 3.48c-1.03-1.44-2.418-4.705-.873-7.488l-.08-.08L4.45 9.707 2 2Z" fill="#fff" fill-opacity=".8"/><path d="M14.016 25.696c-3.091-3.072-7.299-1.28-9.016 0L14.874 35c1.05-1.772 2.233-6.232-.858-9.304Z" fill="#1D8CE0"/><path d="M14.016 25.696c-3.091-3.072-7.299-1.28-9.016 0L14.874 35c1.05-1.772 2.233-6.232-.858-9.304Z" fill="#fff" fill-opacity=".4"/><path d="M19 23.876 15.714 21 2.666 34.602c-.68.648-1.034 1.737-.095 2.696 1.154 1.178 2.317.637 2.816.082L19 23.876Z" fill="#1D8CE0"/><path d="M19 23.876 15.714 21 2.666 34.602c-.68.648-1.034 1.737-.095 2.696 1.154 1.178 2.317.637 2.816.082L19 23.876Z" fill="#fff" fill-opacity=".4"/></symbol><symbol fill="none" viewBox="0 0 50 50" id="combat_block" xmlns="http://www.w3.org/2000/svg"><path d="m4.248 4.274 8.918 2.69 19.556 23.262.06.059c3.01-1.608 6.52-.546 8.076.416l-3.574 3.96 7.485 7.276c.782.79 1.356 1.74.313 3.006-1.043 1.266-2.347.633-3.129 0l-7.338-7.326L31 41.62c-1.183-1.657-2.78-5.412-1.004-8.612l-.09-.092-22.843-19.78-2.816-8.862Z" fill="#898989"/><path d="m4.248 4.274 8.918 2.69 19.556 23.262.06.059c3.01-1.608 6.52-.546 8.076.416l-3.574 3.96 7.485 7.276c.782.79 1.356 1.74.313 3.006-1.043 1.266-2.347.633-3.129 0l-7.338-7.326L31 41.62c-1.183-1.657-2.78-5.412-1.004-8.612l-.09-.092-22.843-19.78-2.816-8.862Z" fill="#fff" fill-opacity=".95"/><circle cx="25" cy="25" r="20.24" stroke="#A272E4" stroke-width="5.52"/><path d="m39.875 10.28-29.308 29.9" stroke="#A272E4" stroke-width="5.52"/></symbol><symbol fill="none" viewBox="0 0 51 51" id="cowbell_store" xmlns="http://www.w3.org/2000/svg"><path d="M8.507 12.31c-2.016-3.535-2.319-7.474.505-9.09 3.366-1.927 6.554.505 8.571 4.04" stroke="#FEFEFE" stroke-width="2"/><ellipse rx="11.537" ry="3.029" transform="rotate(-30.039 27.71 -20.288) skewX(-.078)" fill="#898989"/><ellipse rx="11.537" ry="3.029" transform="rotate(-30.039 27.71 -20.288) skewX(-.078)" fill="#fff" fill-opacity=".8"/><path d="M12.558 48.155 4 17 23.5 5l23.344 22.955-34.286 20.2Z" fill="#898989"/><path d="M12.558 48.155 4 17 23.5 5l23.344 22.955-34.286 20.2Z" fill="#fff" fill-opacity=".8"/><ellipse rx="19.917" ry="6.465" transform="rotate(-30.039 85.675 -36.388) skewX(-.078)" fill="#FEFEFE"/><ellipse rx="17.654" ry="4.942" transform="rotate(-30.039 85.872 -36.44) skewX(-.078)" fill="#898989"/><ellipse rx="17.654" ry="4.942" transform="rotate(-30.039 85.872 -36.44) skewX(-.078)" fill="#fff" fill-opacity=".4"/><ellipse cx="30.709" cy="38.56" rx="3.025" ry="3.03" fill="#898989"/><ellipse cx="30.709" cy="38.56" rx="3.025" ry="3.03" fill="#fff" fill-opacity=".8"/><path d="m27.684 33.51 2.521 4.04" stroke="#898989" stroke-width="2"/><path d="m27.684 33.51 2.521 4.04" stroke="#fff" stroke-opacity=".8" stroke-width="2"/><path d="M30.111 21.434c-.2 1.332-1.67 1.383-2.347 2.743-.677 1.36-.622 2.05-.258 2.999.38.992 1.755 2.12 3.035 1.91 1.812-.298 3.088-.7 4.95-2.778.55-.78 1.844-3.183 1.208-4.954-.636-1.77-1.844-2.894-2.594-3.34-.506-.175-1.169-.743-2.161-.72-1.24.029-2.36.91-2.412 1.83-.06 1.05.732 1.291.58 2.31Z" fill="#898989"/><path d="M30.111 21.434c-.2 1.332-1.67 1.383-2.347 2.743-.677 1.36-.622 2.05-.258 2.999.38.992 1.755 2.12 3.035 1.91 1.812-.298 3.088-.7 4.95-2.778.55-.78 1.844-3.183 1.208-4.954-.636-1.77-1.844-2.894-2.594-3.34-.506-.175-1.169-.743-2.161-.72-1.24.029-2.36.91-2.412 1.83-.06 1.05.732 1.291.58 2.31Z" fill="#fff" fill-opacity=".2"/><path d="M17.564 5.981c-.91.394-3.513 1.506-3.513 1.655 0 1.357.51 3.905 3.01 3.905 2.045 0 .082 2.34 2.51 4.516s5.019 1.422 6.022 0c1.006-1.42.321-3.063-.502-3.513-1.013-.553.326-1.617.496-2.706.169-1.09.285-2.326-.961-3.463-.833-.758-2.255-1.534-3.55-1.397-.831.087-2.482.557-3.512 1.003Z" fill="#898989"/><path d="M17.564 5.981c-.91.394-3.513 1.506-3.513 1.655 0 1.357.51 3.905 3.01 3.905 2.045 0 .082 2.34 2.51 4.516s5.019 1.422 6.022 0c1.006-1.42.321-3.063-.502-3.513-1.013-.553.326-1.617.496-2.706.169-1.09.285-2.326-.961-3.463-.833-.758-2.255-1.534-3.55-1.397-.831.087-2.482.557-3.512 1.003Z" fill="#fff" fill-opacity=".2"/><path d="M8.671 17.375c-1.985.366-3.654 2.195-3.654 3.14l3.011 11.1s2.47 1.813 4.989 2.442c2.519.63 8.5 1.587 8.5-1.5 0-1.132-1.867-1.475-2.122-2.292-.255-.817 1.77-1.188 2.908-2.797.657-.93.71-3.555-1.807-4.201-2.72-.698-4.924 1.507-5.635.563-.711-.944.373-1.576-.198-3.314-.72-2.191-2.442-3.794-5.992-3.14Z" fill="#898989"/><path d="M8.671 17.375c-1.985.366-3.654 2.195-3.654 3.14l3.011 11.1s2.47 1.813 4.989 2.442c2.519.63 8.5 1.587 8.5-1.5 0-1.132-1.867-1.475-2.122-2.292-.255-.817 1.77-1.188 2.908-2.797.657-.93.71-3.555-1.807-4.201-2.72-.698-4.924 1.507-5.635.563-.711-.944.373-1.576-.198-3.314-.72-2.191-2.442-3.794-5.992-3.14Z" fill="#fff" fill-opacity=".2"/></symbol><symbol fill="none" viewBox="0 0 40 40" id="discord" xmlns="http://www.w3.org/2000/svg"><g clip-path="url(#ala)"><path d="M33.169 7.621a31.336 31.336 0 0 0-7.735-2.399.117.117 0 0 0-.125.06c-.334.593-.704 1.368-.963 1.977a28.93 28.93 0 0 0-8.687 0 20.014 20.014 0 0 0-.978-1.978.122.122 0 0 0-.124-.059 31.248 31.248 0 0 0-7.735 2.4.11.11 0 0 0-.051.043C1.845 15.025.495 22.204 1.157 29.294a.13.13 0 0 0 .05.089c3.25 2.387 6.398 3.836 9.488 4.796a.123.123 0 0 0 .133-.043 22.524 22.524 0 0 0 1.942-3.158.12.12 0 0 0-.066-.167 20.748 20.748 0 0 1-2.964-1.413.122.122 0 0 1-.012-.202c.199-.15.398-.305.588-.461a.117.117 0 0 1 .123-.017c6.219 2.84 12.952 2.84 19.097 0a.117.117 0 0 1 .125.015c.19.157.39.314.59.463a.122.122 0 0 1-.01.202c-.947.553-1.931 1.02-2.966 1.411a.121.121 0 0 0-.065.17 25.3 25.3 0 0 0 1.94 3.155.12.12 0 0 0 .133.045c3.105-.96 6.254-2.41 9.504-4.796a.122.122 0 0 0 .05-.087c.792-8.197-1.328-15.317-5.619-21.63a.097.097 0 0 0-.05-.045Zm-19.47 17.356c-1.873 0-3.416-1.719-3.416-3.83 0-2.111 1.513-3.83 3.415-3.83 1.918 0 3.445 1.734 3.415 3.83 0 2.111-1.512 3.83-3.415 3.83Zm12.626 0c-1.872 0-3.415-1.719-3.415-3.83 0-2.111 1.513-3.83 3.415-3.83 1.917 0 3.445 1.734 3.415 3.83 0 2.111-1.498 3.83-3.415 3.83Z" fill="#fff"/></g><defs><clipPath id="ala"><path fill="#fff" transform="translate(1 5)" d="M0 0h38v29.437H0z"/></clipPath></defs></symbol><symbol fill="none" viewBox="0 0 20 20" id="elite_star" xmlns="http://www.w3.org/2000/svg"><g clip-path="url(#ama)"><path d="m10 .5 2.357 7.255h7.63l-6.173 4.484 2.358 7.256L10 15.01l-6.172 4.484 2.358-7.256L.014 7.755h7.629L10 .5Z" fill="#898989"/><path d="m10 .5 2.357 7.255h7.63l-6.173 4.484 2.358 7.256L10 15.01l-6.172 4.484 2.358-7.256L.014 7.755h7.629L10 .5Z" fill="#fff" fill-opacity=".6"/></g><defs><clipPath id="ama"><path fill="#fff" d="M0 0h20v20H0z"/></clipPath></defs></symbol><symbol fill="none" viewBox="0 0 30 30" id="experience" xmlns="http://www.w3.org/2000/svg"><path d="M1.993 7.97 14.944 0l12.952 7.97v13.45L14.944 29.89 1.993 21.42V7.97Z" fill="#546DDB"/><path d="m7.62 9.59 2.405 4.132L12.43 9.59h2.25l-3.425 5.612 3.51 5.721h-2.272l-2.468-4.21-2.467 4.21h-2.28l3.517-5.72-3.432-5.613H7.62ZM20.51 16.696h-2.95v-1.55h2.95c.513 0 .928-.082 1.245-.248.317-.166.547-.395.693-.685a2.2 2.2 0 0 0 .226-1.012c0-.358-.076-.693-.226-1.004a1.72 1.72 0 0 0-.693-.763c-.316-.192-.732-.288-1.245-.288h-2.35v9.776h-1.955V9.59h4.305c.877 0 1.621.156 2.234.467.617.307 1.087.732 1.408 1.277.322.54.483 1.157.483 1.852 0 .732-.16 1.36-.483 1.884-.321.524-.79.926-1.408 1.206-.613.28-1.357.42-2.234.42Z" fill="#FEFEFE"/></symbol><symbol fill="none" viewBox="0 0 20 20" id="flag" xmlns="http://www.w3.org/2000/svg"><path d="M4 1.5V19" stroke="#FAA21E" stroke-width="3"/><path d="M5 12.667v-11s2-1.5 6.5 0 6.5 0 6.5 0v11s-2 1.499-6.5 0c-4.5-1.5-6.5 0-6.5 0Z" fill="#FAA21E"/></symbol><symbol fill="none" viewBox="0 0 40 40" id="guide" xmlns="http://www.w3.org/2000/svg"><path fill="#D0333D" d="M18 0h4v40h-4z"/><path fill="#fff" fill-opacity=".2" d="M18 0h4v40h-4z"/><path d="M7.101 6 2 10l5.101 4H32V6H7.101Z" fill="#D0333D"/><path d="M7.101 6 2 10l5.101 4H32V6H7.101Z" fill="#fff" fill-opacity=".6"/><path d="M31.47 28 37 24l-5.53-4H7v8h24.47Z" fill="#D0333D"/><path d="M31.47 28 37 24l-5.53-4H7v8h24.47Z" fill="#fff" fill-opacity=".8"/></symbol><symbol fill="none" viewBox="0 0 40 40" id="guild" xmlns="http://www.w3.org/2000/svg"><circle cx="20" cy="38" r="2" fill="#D0333D"/><path d="M13 39c-1.6 0-3.333-1.333-4-2 .667-.667 2.4-2 4-2s3.333 1.333 4 2c-.667.667-2.4 2-4 2ZM7.864 34.889c-1.546-.415-2.875-2.156-3.346-2.974.816-.473 2.836-1.314 4.381-.9 1.546.416 2.875 2.157 3.346 2.975-.816.473-2.836 1.314-4.381.899ZM4.381 29.677c-1.385-.802-2.22-2.829-2.464-3.742.91-.244 3.079-.533 4.464.269 1.386.802 2.22 2.828 2.464 3.741-.91.245-3.078.533-4.464-.268ZM1.828 23.62C.698 22.484.414 20.31.414 19.365c.943 0 3.111.284 4.243 1.418 1.131 1.134 1.414 3.308 1.414 4.253-.943 0-3.111-.284-4.243-1.418ZM1.51 17.19c-.8-1.39-.511-3.563-.267-4.475.91.244 2.932 1.08 3.732 2.47.8 1.389.512 3.562.268 4.475-.911-.245-2.932-1.081-3.732-2.47ZM1.8 9.91c-.414-1.548.425-3.573.897-4.391.816.472 2.553 1.805 2.967 3.354.414 1.55-.425 3.574-.897 4.392-.816-.472-2.553-1.805-2.967-3.354ZM27 39c1.6 0 3.333-1.333 4-2-.667-.667-2.4-2-4-2s-3.333 1.333-4 2c.667.667 2.4 2 4 2ZM32.136 34.889c1.546-.415 2.875-2.156 3.346-2.974-.816-.473-2.835-1.314-4.381-.9-1.546.416-2.875 2.157-3.346 2.975.817.473 2.836 1.314 4.381.899ZM35.619 29.677c1.385-.802 2.22-2.829 2.464-3.742-.91-.244-3.079-.533-4.464.269-1.386.802-2.22 2.828-2.464 3.741.91.245 3.078.533 4.464-.268ZM38.172 23.62c1.13-1.135 1.414-3.309 1.414-4.254-.943 0-3.111.284-4.243 1.418-1.131 1.134-1.414 3.308-1.414 4.253.943 0 3.111-.284 4.243-1.418ZM38.49 17.19c.8-1.39.511-3.563.267-4.475-.91.244-2.932 1.08-3.732 2.47-.8 1.389-.512 3.562-.268 4.475.911-.245 2.932-1.081 3.732-2.47ZM38.2 9.91c.414-1.548-.425-3.573-.897-4.391-.816.472-2.553 1.805-2.967 3.354-.414 1.55.425 3.574.897 4.392.816-.472 2.553-1.805 2.967-3.354ZM20 31c.79 1.275.79 1.274.791 1.274h.002l.004-.004.014-.008.05-.032.185-.118a42.674 42.674 0 0 0 2.76-1.95c1.562-1.2 3.545-2.912 4.585-4.648 1.944-3.247 2.135-6.098 2.107-7.643V5.584l-.6-.45c-.834-.626-2.274-1.52-3.992-2.261C24.196 2.135 22.105 1.5 20 1.5c-2.105 0-4.197.635-5.907 1.373-1.718.741-3.159 1.634-3.993 2.26l-.6.45v12.302c0 1.093.018 2.218.302 3.47.287 1.265.827 2.588 1.786 4.167 1.052 1.731 3.038 3.44 4.603 4.642a43.094 43.094 0 0 0 2.947 2.066l.05.032.014.008.004.003.002.001L20 31Zm0 0 .79 1.275-.79.49-.791-.49.79-1.275Z" fill="#D0333D"/><path d="M20 31c.79 1.275.79 1.274.791 1.274h.002l.004-.004.014-.008.05-.032.185-.118a42.674 42.674 0 0 0 2.76-1.95c1.562-1.2 3.545-2.912 4.585-4.648 1.944-3.247 2.135-6.098 2.107-7.643V5.584l-.6-.45c-.834-.626-2.274-1.52-3.992-2.261C24.196 2.135 22.105 1.5 20 1.5c-2.105 0-4.197.635-5.907 1.373-1.718.741-3.159 1.634-3.993 2.26l-.6.45v12.302c0 1.093.018 2.218.302 3.47.287 1.265.827 2.588 1.786 4.167 1.052 1.731 3.038 3.44 4.603 4.642a43.094 43.094 0 0 0 2.947 2.066l.05.032.014.008.004.003.002.001L20 31Zm0 0 .79 1.275-.79.49-.791-.49.79-1.275Z" fill="#fff" fill-opacity=".8"/><path d="M20 31c.79 1.275.79 1.274.791 1.274h.002l.004-.004.014-.008.05-.032.185-.118a42.674 42.674 0 0 0 2.76-1.95c1.562-1.2 3.545-2.912 4.585-4.648 1.944-3.247 2.135-6.098 2.107-7.643V5.584l-.6-.45c-.834-.626-2.274-1.52-3.992-2.261C24.196 2.135 22.105 1.5 20 1.5c-2.105 0-4.197.635-5.907 1.373-1.718.741-3.159 1.634-3.993 2.26l-.6.45v12.302c0 1.093.018 2.218.302 3.47.287 1.265.827 2.588 1.786 4.167 1.052 1.731 3.038 3.44 4.603 4.642a43.094 43.094 0 0 0 2.947 2.066l.05.032.014.008.004.003.002.001h0L20 31Zm0 0 .79 1.275-.79.49-.791-.49.79-1.275Z" stroke="#D0333D" stroke-width="3" stroke-linecap="round"/><path d="m20 10 1.94 3.33 3.766.816-2.567 2.874.388 3.834L20 19.3l-3.527 1.554.389-3.834-2.568-2.874 3.766-.816L20 10Z" fill="#D0333D"/></symbol><symbol fill="none" viewBox="0 0 40 40" id="hamburger_menu" xmlns="http://www.w3.org/2000/svg"><rect width="40" height="6" rx="3" fill="#898989"/><rect width="40" height="6" rx="3" fill="#fff" fill-opacity=".95"/><rect y="17" width="40" height="6" rx="3" fill="#898989"/><rect y="17" width="40" height="6" rx="3" fill="#fff" fill-opacity=".95"/><rect y="34" width="40" height="6" rx="3" fill="#898989"/><rect y="34" width="40" height="6" rx="3" fill="#fff" fill-opacity=".95"/></symbol><symbol fill="none" viewBox="0 0 40 40" id="house" xmlns="http://www.w3.org/2000/svg"><path d="M18 12 29 0l11 12H18Z" fill="#7445B8"/><path d="M18 12 29 0l11 12H18Z" fill="#fff" fill-opacity=".2"/><path d="M21 40V12h16v28H21Z" fill="#898989"/><path d="M21 40V12h16v28H21Z" fill="#fff" fill-opacity=".4"/><path fill="#FAA21E" d="M26.5 16.5h5v7h-5z"/><path fill="#fff" fill-opacity=".2" d="M26.5 16.5h5v7h-5z"/><path stroke="#7445B8" d="M26.5 16.5h5v7h-5z"/><path d="M26.5 8a2.5 2.5 0 0 1 5 0v1.5h-5V8Z" fill="#FAA21E"/><path d="M26.5 8a2.5 2.5 0 0 1 5 0v1.5h-5V8Z" fill="#fff" fill-opacity=".2"/><path d="M26.5 8a2.5 2.5 0 0 1 5 0v1.5h-5V8Z" stroke="#7445B8"/><path fill="#7445B8" d="M25 30h8v10h-8z"/><path d="m2 23 19-7v24H2V23Z" fill="#898989"/><path d="m2 23 19-7v24H2V23Z" fill="#fff" fill-opacity=".6"/><path d="M0 22.5 21 15v2.5L0 25v-2.5Z" fill="#7445B8"/><path d="M0 22.5 21 15v2.5L0 25v-2.5Z" fill="#fff" fill-opacity=".2"/><path fill="#7445B8" d="M4 30h15v10H4z"/><path fill="#fff" fill-opacity=".2" d="M4 30h15v10H4z"/></symbol><symbol fill="none" viewBox="0 0 40 40" id="infinity" xmlns="http://www.w3.org/2000/svg"><path d="M9.912 29.344c-1.44 0-2.8-.336-4.08-1.008-1.28-.672-2.32-1.696-3.12-3.072-.768-1.408-1.152-3.168-1.152-5.28 0-2.144.384-3.904 1.152-5.28.8-1.376 1.84-2.4 3.12-3.072a8.653 8.653 0 0 1 4.08-1.008c1.824 0 3.296.352 4.416 1.056 1.152.704 2.336 1.696 3.552 2.976l7.44 7.824c.768.8 1.52 1.344 2.256 1.632a6.02 6.02 0 0 0 2.208.432c.704 0 1.36-.16 1.968-.48.608-.32 1.088-.816 1.44-1.488.384-.672.576-1.536.576-2.592s-.192-1.92-.576-2.592c-.352-.672-.832-1.168-1.44-1.488a4.162 4.162 0 0 0-1.968-.48c-.48 0-.976.064-1.488.192-.48.128-.976.352-1.488.672-.48.288-.976.688-1.488 1.2l-7.44 7.824c-1.248 1.28-2.432 2.272-3.552 2.976-1.12.704-2.592 1.056-4.416 1.056Zm.432-4.8a6.4 6.4 0 0 0 2.256-.432c.768-.32 1.504-.864 2.208-1.632l7.44-7.824c1.216-1.312 2.384-2.304 3.504-2.976 1.152-.704 2.64-1.056 4.464-1.056 1.472 0 2.832.336 4.08 1.008 1.28.672 2.304 1.696 3.072 3.072.8 1.376 1.2 3.136 1.2 5.28 0 2.112-.4 3.872-1.2 5.28-.768 1.376-1.792 2.4-3.072 3.072-1.248.672-2.608 1.008-4.08 1.008-1.824 0-3.312-.352-4.464-1.056-1.12-.736-2.288-1.728-3.504-2.976l-7.44-7.824c-.48-.512-.976-.912-1.488-1.2a4.755 4.755 0 0 0-1.488-.672 5.75 5.75 0 0 0-1.488-.192c-.704 0-1.36.16-1.968.48-.608.32-1.104.816-1.488 1.488-.352.672-.528 1.536-.528 2.592s.176 1.92.528 2.592c.384.672.88 1.168 1.488 1.488.608.32 1.264.48 1.968.48Z" fill="#fff"/></symbol><symbol fill="none" viewBox="0 0 20 20" id="info" xmlns="http://www.w3.org/2000/svg"><circle cx="10" cy="10" r="10" fill="#546DDB"/><circle cx="10" cy="10" r="10" fill="#fff" fill-opacity=".2"/><path d="M11.065 12.977H8.841v-.42c.012-.619.152-1.165.42-1.639.266-.473.722-.971 1.365-1.493.522-.425.862-.76 1.02-1.002.158-.255.237-.589.237-1.002 0-.583-.182-1.068-.546-1.457a1.695 1.695 0 0 0-1.33-.601c-.57 0-1.044.225-1.42.674-.365.437-.547 1.002-.547 1.694v.237H5.6c.024-1.36.304-2.399.838-3.115.79-1.069 1.961-1.603 3.515-1.603 1.421 0 2.544.431 3.37 1.293.717.753 1.075 1.706 1.075 2.86 0 .74-.152 1.354-.456 1.84-.291.473-.856 1.008-1.694 1.603-.558.388-.898.692-1.02.91-.109.207-.163.614-.163 1.22ZM9.99 14.234c.34 0 .62.115.838.346.23.218.346.492.346.82 0 .327-.116.606-.346.837-.231.231-.51.346-.838.346a1.12 1.12 0 0 1-.82-.346c-.23-.23-.346-.51-.346-.838 0-.327.115-.6.346-.82.23-.23.504-.345.82-.345Z" fill="#FEFEFE"/></symbol><symbol fill="none" viewBox="0 0 41 40" id="leaderboard" xmlns="http://www.w3.org/2000/svg"><path fill-rule="evenodd" clip-rule="evenodd" d="M8.32 4h24.568v3.667c2.2-.734 5.133-1.1 7.333.366 2.2 1.467-.733 8.8-2.933 11.367-1.76 2.053-5.5 3.422-6.6 3.667C30 24 29.22 25.022 27.753 26c-.96.64-2.853 1.094-3.968 1.362l-.432.105V30.4l2.2 2.2 3.3.733V37H12.721v-3.667l3.666-.733 2.2-2.2v-2.933a28.488 28.488 0 0 0-.8-.28c-1.078-.365-2.58-.874-3.6-1.554-1.162-.775-1.896-1.712-2.388-2.34l-.178-.226c-1.833-.123-5.511-1.218-7.333-3.3C1.72 16.833-.112 9.5 1.72 8.033c1.422-1.137 4.02-.748 5.875-.471.257.038.501.075.725.105V4Zm24.934 6.482c1.222-.366 3.812-.953 4.399-.366.733.733-1.1 5.867-1.833 6.966-.587.88-3.3 2.2-4.766 2.567a9.089 9.089 0 0 0 1.466-3.667c.294-1.76.611-4.4.734-5.5ZM8.32 10.6c-1.222-.367-3.814-.953-4.4-.367-.734.734 1.1 5.867 1.833 6.967.587.88 3.3 2.2 4.767 2.567A9.09 9.09 0 0 1 9.054 16.1c-.293-1.76-.611-4.4-.733-5.5Z" fill="#FAA21E"/><path d="M16 6h-5.5c0 3.5.5 9 2 12.5 1.949 4.548 5.833 6.333 8 7-2-3-2.7-6.8-3.5-10-.8-3.2-1-7.5-1-9.5Z" fill="#FAA21E"/><path d="M16 6h-5.5c0 3.5.5 9 2 12.5 1.949 4.548 5.833 6.333 8 7-2-3-2.7-6.8-3.5-10-.8-3.2-1-7.5-1-9.5Z" fill="#fff" fill-opacity=".4"/></symbol><symbol fill="none" viewBox="0 0 40 40" id="logout" xmlns="http://www.w3.org/2000/svg"><path fill-rule="evenodd" clip-rule="evenodd" d="M5 6h23v9l-3 3V9H7v22h18v-7l3 3v7H5V6Z" fill="#1D8CE0"/><path fill-rule="evenodd" clip-rule="evenodd" d="M5 6h23v9l-3 3V9H7v22h18v-7l3 3v7H5V6Z" fill="#fff" fill-opacity=".95"/><path d="M21 0 5 6v28l16 6V0Z" fill="#1D8CE0"/><path d="M21 0 5 6v28l16 6V0Z" fill="#fff" fill-opacity=".2"/><ellipse cx="17.5" cy="21" rx="1.5" ry="2" fill="#1D8CE0"/><ellipse cx="17.5" cy="21" rx="1.5" ry="2" fill="#fff" fill-opacity=".95"/><path d="M33 17v-3l-7 7 7 7v-5h7v-4h-7v-2Z" fill="#2FC4A7"/></symbol><symbol fill="none" viewBox="0 0 30 30" id="loot" xmlns="http://www.w3.org/2000/svg"><path d="M1.5 6.5c.8-1.2 3-2.167 4-2.5-.667.667-2.1 2.3-2.5 3.5-.4 1.2-.625 2.5-.688 3H0c.167-.833.7-2.8 1.5-4Z" fill="#FAA21E"/><path d="M1.5 6.5c.8-1.2 3-2.167 4-2.5-.667.667-2.1 2.3-2.5 3.5-.4 1.2-.625 2.5-.688 3H0c.167-.833.7-2.8 1.5-4Z" fill="#000" fill-opacity=".2"/><path d="M5 7c.8-1.2 1.5-2.5 2-3h16c.5.5 1.2 1.8 2 3s1 2.833 1 3.5H4c0-.667.2-2.3 1-3.5Z" fill="#FAA21E"/><path d="M5 7c.8-1.2 1.5-2.5 2-3h16c.5.5 1.2 1.8 2 3s1 2.833 1 3.5H4c0-.667.2-2.3 1-3.5Z" fill="#000" fill-opacity=".2"/><path d="M28.5 6.5c-.8-1.2-3-2.167-4-2.5.667.667 2.1 2.3 2.5 3.5.4 1.2.625 2.5.688 3H30c-.167-.833-.7-2.8-1.5-4Z" fill="#FAA21E"/><path d="M28.5 6.5c-.8-1.2-3-2.167-4-2.5.667.667 2.1 2.3 2.5 3.5.4 1.2.625 2.5.688 3H30c-.167-.833-.7-2.8-1.5-4Z" fill="#000" fill-opacity=".2"/><path d="M2 12H0v15h2V12Z" fill="#FAA21E"/><path d="M2 12H0v15h2V12Z" fill="#000" fill-opacity=".2"/><path d="M30 12h-2v15h2V12Z" fill="#FAA21E"/><path d="M30 12h-2v15h2V12Z" fill="#000" fill-opacity=".2"/><path d="M11 12H3.5v15h23V12H19c0 3-.4 7-4 7s-4-4-4-7Z" fill="#FAA21E"/><path d="M11 12H3.5v15h23V12H19c0 3-.4 7-4 7s-4-4-4-7Z" fill="#000" fill-opacity=".2"/><path fill-rule="evenodd" clip-rule="evenodd" d="M12 12h6v2c0 2-1 4-3 4s-3-2.5-3-4v-2Zm3 4a1.5 1.5 0 1 0 0-3 1.5 1.5 0 0 0 0 3Z" fill="#FAA21E"/><path fill-rule="evenodd" clip-rule="evenodd" d="M12 12h6v2c0 2-1 4-3 4s-3-2.5-3-4v-2Zm3 4a1.5 1.5 0 1 0 0-3 1.5 1.5 0 0 0 0 3Z" fill="#fff" fill-opacity=".2"/></symbol><symbol fill="none" viewBox="0 0 40 40" id="marketplace" xmlns="http://www.w3.org/2000/svg"><path fill="#FEFEFE" d="M4 14h32v25H4z"/><path d="M32.5 1H7l-6 9.756v6.342C1.5 18.398 2.7 21 5.5 21s4.667-2.602 5-3.902c.333 1.3 2.2 3.902 5 3.902s4.167-2.602 4.5-3.902c.333 1.3 1.7 3.902 4.5 3.902s4.667-2.602 5-3.902c.333 1.3 1.8 3.902 5 3.902s4-2.602 4.5-3.902v-6.342L32.5 1Z" fill="#CE4317"/><path d="M32.5 1H7l-6 9.756v6.342C1.5 18.398 2.7 21 5.5 21s4.667-2.602 5-3.902c.333 1.3 2.2 3.902 5 3.902s4.167-2.602 4.5-3.902c.333 1.3 1.7 3.902 4.5 3.902s4.667-2.602 5-3.902c.333 1.3 1.8 3.902 5 3.902s4-2.602 4.5-3.902v-6.342L32.5 1Z" fill="#fff" fill-opacity=".3"/><path d="M1 10.5 7 1h25.5l6.5 9.5H1Z" fill="#898989"/><path d="M1 10.5 7 1h25.5l6.5 9.5H1Z" fill="#fff" fill-opacity=".6"/><path fill="#546DDB" d="M12 26h7v13h-7z"/><path fill="#fff" fill-opacity=".4" d="M12 26h7v13h-7z"/><path fill="#546DDB" d="M21 26h7v13h-7z"/><path fill="#fff" fill-opacity=".4" d="M21 26h7v13h-7z"/></symbol><symbol fill="none" viewBox="0 0 40 40" id="menu_collapse" xmlns="http://www.w3.org/2000/svg"><rect x="10" width="28" height="6" rx="3" fill="#898989"/><rect x="10" width="28" height="6" rx="3" fill="#fff" fill-opacity=".95"/><rect x="20" y="17" width="18" height="6" rx="3" fill="#898989"/><rect x="20" y="17" width="18" height="6" rx="3" fill="#fff" fill-opacity=".95"/><rect x="10" y="34" width="28" height="6" rx="3" fill="#898989"/><rect x="10" y="34" width="28" height="6" rx="3" fill="#fff" fill-opacity=".95"/><g clip-path="url(#aza)"><path d="M14.748 11 4.5 20l10.248 9" stroke="#FEFEFE" stroke-width="6" stroke-linecap="round"/></g><defs><clipPath id="aza"><path fill="#fff" transform="rotate(-90 16 16)" d="M0 0h24v18H0z"/></clipPath></defs></symbol><symbol fill="none" viewBox="0 0 40 40" id="menu_expand" xmlns="http://www.w3.org/2000/svg"><rect x="10" width="28" height="6" rx="3" fill="#898989"/><rect x="10" width="28" height="6" rx="3" fill="#fff" fill-opacity=".95"/><rect x="20" y="17" width="18" height="6" rx="3" fill="#898989"/><rect x="20" y="17" width="18" height="6" rx="3" fill="#fff" fill-opacity=".95"/><rect x="10" y="34" width="28" height="6" rx="3" fill="#898989"/><rect x="10" y="34" width="28" height="6" rx="3" fill="#fff" fill-opacity=".95"/><g clip-path="url(#baa)"><path d="M3.252 29 13.5 20 3.252 11" stroke="#FEFEFE" stroke-width="6" stroke-linecap="round"/></g><defs><clipPath id="baa"><path fill="#fff" transform="rotate(90 5 13)" d="M0 0h24v18H0z"/></clipPath></defs></symbol><symbol fill="none" viewBox="0 0 40 40" id="merch" xmlns="http://www.w3.org/2000/svg"><path d="M38.025 23.515c.49-.486.49-1.457.49-1.457L39.99 8.952s.123-.85-.491-1.457c-.615-.606-1.474-.485-1.474-.485H11L14.93 24h21.62s.983 0 1.475-.485Z" fill="#FAA21E"/><path d="M38 30H14.5L9 3H2" stroke="#FAA21E" stroke-width="4" stroke-linecap="round" stroke-linejoin="round"/><path d="M38 30H14.5L9 3H2" stroke="#fff" stroke-opacity=".6" stroke-width="4" stroke-linecap="round" stroke-linejoin="round"/><circle cx="14" cy="36" r="4" fill="#FAA21E"/><circle cx="36" cy="36" r="4" fill="#FAA21E"/></symbol><symbol fill="none" viewBox="0 0 40 40" id="moderator" xmlns="http://www.w3.org/2000/svg"><path d="M13.324 40 1 18.462 13.5 19l2.905-19 11.298 16.41L39 8.205l-3.081 25.641L13.324 40Z" fill="#2FC4A7"/><path d="M13.324 40 1 18.462 13.5 19l2.905-19 11.298 16.41L39 8.205l-3.081 25.641L13.324 40Z" fill="#fff" fill-opacity=".2"/><path d="M24.5 33.5 6.5 22 15 36l9.5-2.5Z" fill="#2FC4A7"/><path d="M24.5 33.5 6.5 22 15 36l9.5-2.5Z" fill="#fff" fill-opacity=".6"/></symbol><symbol fill="none" viewBox="0 0 40 40" id="news" xmlns="http://www.w3.org/2000/svg"><path d="m2.5 35.5-2.5-5L20 8l-.5-1L21 6l13.5 23.5-2 1-.5-1-29.5 6Z" fill="#7445B8"/><path d="m2.5 35.5-2.5-5L20 8l-.5-1L21 6l13.5 23.5-2 1-.5-1-29.5 6Z" fill="#fff" fill-opacity=".2"/><path d="M9.5 33c.5 2.5 2.5 5.75 7 5s4.5-5.5 4-7.5" stroke="#7445B8" stroke-width="2"/><path d="M9.5 33c.5 2.5 2.5 5.75 7 5s4.5-5.5 4-7.5" stroke="#fff" stroke-opacity=".2" stroke-width="2"/><path d="M25.5 6 28 1m2 9.5 4-4m-.5 9 5-2.5M35 21h5" stroke="#7445B8" stroke-width="2"/><path d="M25.5 6 28 1m2 9.5 4-4m-.5 9 5-2.5M35 21h5" stroke="#fff" stroke-opacity=".95" stroke-width="2"/></symbol><symbol fill="none" viewBox="0 0 40 40" id="patch_notes" xmlns="http://www.w3.org/2000/svg"><path fill-rule="evenodd" clip-rule="evenodd" d="M6 2a4 4 0 0 0-4 4v28a4 4 0 0 0 4 4h28a4 4 0 0 0 4-4V6a4 4 0 0 0-4-4H6Zm30 6H4v26a2 2 0 0 0 2 2h28a2 2 0 0 0 2-2V8Z" fill="#1D8CE0"/><path fill-rule="evenodd" clip-rule="evenodd" d="M6 2a4 4 0 0 0-4 4v28a4 4 0 0 0 4 4h28a4 4 0 0 0 4-4V6a4 4 0 0 0-4-4H6Zm30 6H4v26a2 2 0 0 0 2 2h28a2 2 0 0 0 2-2V8Z" fill="#fff" fill-opacity=".6"/><path d="M9 21h22v3H9v-3Z" fill="#1D8CE0"/><path d="M9 21h22v3H9v-3Z" fill="#fff" fill-opacity=".6"/><path d="M9 28h22v3H9v-3Z" fill="#1D8CE0"/><path d="M9 28h22v3H9v-3Z" fill="#fff" fill-opacity=".6"/><path d="M9 14h22v3H9v-3Z" fill="#1D8CE0"/><path d="M9 14h22v3H9v-3Z" fill="#fff" fill-opacity=".6"/></symbol><symbol fill="none" viewBox="0 0 40 40" id="privacy_policy" xmlns="http://www.w3.org/2000/svg"><path d="M10.569 17.637V8.205C11.426 6.32 14.513 2.547 20 2.547c5.487 0 8.574 3.772 9.431 5.658v9.432" stroke="#FAA21E" stroke-width="3.772"/><path fill-rule="evenodd" clip-rule="evenodd" d="M7.586 15a4.138 4.138 0 0 0-4.138 4.138V35.69a4.138 4.138 0 0 0 4.138 4.138h24.828a4.138 4.138 0 0 0 4.138-4.138V19.138A4.138 4.138 0 0 0 32.414 15H7.586Zm13.06 13.228a3.013 3.013 0 1 0-1.292 0l-1.362 4.086h4.016l-1.362-4.086Z" fill="#FAA21E"/></symbol><symbol fill="none" viewBox="0 0 60 50" id="purple_cow_cheer" xmlns="http://www.w3.org/2000/svg"><path d="M19.096 0c-2.346 0-2.09 4.64-2.582 6.863l5.533-1.378C21.678 3.655 21 0 19.096 0ZM40.941 0c2.538 0 2.055 4.64 2.538 6.862L38.04 5.485C38.403 3.655 39 0 40.941 0Z" fill="#546DDB"/><path d="M52.35 27.5c-.36.96-1.35 3.3-3 4.05l2.4 8.4c3.15-2.25 5.58-7.38 5.7-9.3.15-2.4-4.65-4.35-5.1-3.15Z" fill="#FEFEFE"/><path d="M52.35 27.5c-.36.96-1.35 3.3-3 4.05l2.4 8.4c3.15-2.25 5.58-7.38 5.7-9.3.15-2.4-4.65-4.35-5.1-3.15Z" stroke="#898989" stroke-width=".999" stroke-linecap="round" stroke-linejoin="round"/><path d="M52.35 27.5c-.36.96-1.35 3.3-3 4.05l2.4 8.4c3.15-2.25 5.58-7.38 5.7-9.3.15-2.4-4.65-4.35-5.1-3.15Z" stroke="#fff" stroke-opacity=".4" stroke-width=".999" stroke-linecap="round" stroke-linejoin="round"/><path d="M7.69 26.966c.373.967 1.4 3.322 3.11 4.077L8.312 39.5c-3.265-2.265-5.784-7.43-5.909-9.363-.155-2.416 4.82-4.379 5.287-3.17Z" fill="#FEFEFE"/><path d="M7.69 26.966c.373.967 1.4 3.322 3.11 4.077L8.312 39.5c-3.265-2.265-5.784-7.43-5.909-9.363-.155-2.416 4.82-4.379 5.287-3.17Z" stroke="#898989" stroke-width=".999" stroke-linecap="round" stroke-linejoin="round"/><path d="M7.69 26.966c.373.967 1.4 3.322 3.11 4.077L8.312 39.5c-3.265-2.265-5.784-7.43-5.909-9.363-.155-2.416 4.82-4.379 5.287-3.17Z" stroke="#fff" stroke-opacity=".4" stroke-width=".999" stroke-linecap="round" stroke-linejoin="round"/><path d="M11.718 5.485C9.8 5.485 7.107 6.27 6 6.662c.369 1.242 1.586 3.922 3.504 4.706 1.919.784 4.735.719 5.903.588-.738.915-2.509 3.726-3.69 7.647-1.18 3.922-1.72 9.085-1.844 11.177-.553 1.11-1.807 4.353-2.397 8.431-.59 4.079-.615 8.889-.554 10.785h46.48c-.06-2.092-.331-7.177-.922-10.785-.59-3.608-1.844-7.124-2.397-8.431-.123-2.353-.627-7.883-1.66-11.177-1.033-3.294-2.89-6.47-3.69-7.647 1.107-.261 3.69-.588 4.98-1.372 1.216-.739 2.521-2.81 2.952-3.922-1.23-.261-4.095-.784-5.718-.784-1.623 0-3.136.523-3.689.784-2.398-.654-8.521-1.96-13.833-1.96-5.312 0-10.944 1.306-13.096 1.96-.738-.392-2.693-1.177-4.611-1.177Z" fill="#FEFEFE"/><path d="M30.321 35.92c-9.073.203-12.349 9.398-12.853 13.97h25.454c-.42-4.741-3.528-14.174-12.6-13.97Z" fill="#D0333D"/><path d="M30.321 35.92c-9.073.203-12.349 9.398-12.853 13.97h25.454c-.42-4.741-3.528-14.174-12.6-13.97Z" fill="#fff" fill-opacity=".9"/><path d="M32.001 9.398c-2.213-1.255-2.624-3.541-2.5-4.652 1.25 0 4.381-.133 7.48.338 3.099.47 5.572.98 6.433 1.372 1.475-.588 2.56-1.12 5.717-.784 1.845.196 3.628.588 3.69.784-.37.98-1.292 3.334-2.583 4.118-1.291.784-4.488 1.422-5.488 1.422.246.261.762.877 1.5 2.25.69 1.284 1.5 3.25 1.75 4.25-1.352-.589-3.295-1.843-4.955-3.02-1.923-1.363-4.158-3.53-4.773-4.314-1.168-.065-4.058-.51-6.27-1.764Z" fill="#546DDB"/><path d="M32.001 9.398c-2.213-1.255-2.624-3.541-2.5-4.652 1.25 0 4.381-.133 7.48.338 3.099.47 5.572.98 6.433 1.372 1.475-.588 2.56-1.12 5.717-.784 1.845.196 3.628.588 3.69.784-.37.98-1.292 3.334-2.583 4.118-1.291.784-4.488 1.422-5.488 1.422.246.261.762.877 1.5 2.25.69 1.284 1.5 3.25 1.75 4.25-1.352-.589-3.295-1.843-4.955-3.02-1.923-1.363-4.158-3.53-4.773-4.314-1.168-.065-4.058-.51-6.27-1.764Z" fill="#fff" fill-opacity=".4"/><path d="M29.793 17.643c-4.98 0-9.59 2.549-9.59 6.862 0 4.314 6.27 5.883 9.96 5.883 4.61 0 9.222-2.353 9.222-5.883s-4.612-6.862-9.592-6.862Z" fill="#CE4317"/><path d="M29.793 17.643c-4.98 0-9.59 2.549-9.59 6.862 0 4.314 6.27 5.883 9.96 5.883 4.61 0 9.222-2.353 9.222-5.883s-4.612-6.862-9.592-6.862Z" fill="#fff" fill-opacity=".8"/><ellipse cx="32.238" cy="20.485" rx=".738" ry=".784" fill="#898989"/><ellipse cx="32.238" cy="20.485" rx=".738" ry=".784" fill="#000" fill-opacity=".6"/><ellipse cx="27.138" cy="20.485" rx=".738" ry=".784" fill="#898989"/><ellipse cx="27.138" cy="20.485" rx=".738" ry=".784" fill="#000" fill-opacity=".6"/><path d="M27.15 23.9s.3 2.55 2.85 2.55c2.55 0 2.55-2.55 2.55-2.55" stroke="#898989" stroke-width=".9" stroke-linecap="round"/><path d="M27.15 23.9s.3 2.55 2.85 2.55c2.55 0 2.55-2.55 2.55-2.55" stroke="#000" stroke-opacity=".6" stroke-width=".9" stroke-linecap="round"/><path d="M13.533 25.28c-.368-2.157-1.537-3.399-2.213-3.725-.246.784-.702 3.223-.922 5.098-.185 1.568-.308 3.333-.37 3.921-.122.262-.614 1.373-1.106 2.942-.492 1.568-.738 2.549-.922 3.529 1.783-.065 4.796 0 5.902-3.53.923-2.94 0-4.51-.553-5.098.184-.392.416-1.783.184-3.137Z" fill="#546DDB"/><path d="M13.533 25.28c-.368-2.157-1.537-3.399-2.213-3.725-.246.784-.702 3.223-.922 5.098-.185 1.568-.308 3.333-.37 3.921-.122.262-.614 1.373-1.106 2.942-.492 1.568-.738 2.549-.922 3.529 1.783-.065 4.796 0 5.902-3.53.923-2.94 0-4.51-.553-5.098.184-.392.416-1.783.184-3.137Z" fill="#fff" fill-opacity=".4"/><path d="M49.316 39.593c0-2.98 1.475-4.64 2.213-5.098.308.915 1.033 3.451 1.476 6.275.442 2.823.43 5.62.369 6.666-1.353-1.372-4.058-4.862-4.058-7.843Z" fill="#546DDB"/><path d="M49.316 39.593c0-2.98 1.475-4.64 2.213-5.098.308.915 1.033 3.451 1.476 6.275.442 2.823.43 5.62.369 6.666-1.353-1.372-4.058-4.862-4.058-7.843Z" fill="#fff" fill-opacity=".4"/><path d="M18.9 17.15c.1-.35.51-1.08 1.35-1.2.84-.12 1.45.75 1.65 1.2M36.6 17.011c.1-.35.51-1.08 1.35-1.2.84-.12 1.45.75 1.65 1.2" stroke="#000" stroke-width=".9" stroke-linecap="round" stroke-linejoin="round"/><path d="M51.3 29.6c-.6 1.2-2.1 2.7-3.45 3.15" stroke="#898989" stroke-width=".999" stroke-linecap="round"/><path d="M51.3 29.6c-.6 1.2-2.1 2.7-3.45 3.15" stroke="#fff" stroke-opacity=".4" stroke-width=".999" stroke-linecap="round"/><path d="m50.998 29.139 6.59 3.04 1.55-4.937-5.868-2.676-2.272 4.573Z" fill="#898989"/><path d="m50.998 29.139 6.59 3.04 1.55-4.937-5.868-2.676-2.272 4.573Z" fill="#fff" fill-opacity=".2"/><path d="M8.7 29c.626 1.257 2.191 2.829 3.6 3.3" stroke="#898989" stroke-width=".999" stroke-linecap="round"/><path d="M8.7 29c.626 1.257 2.191 2.829 3.6 3.3" stroke="#fff" stroke-opacity=".4" stroke-width=".999" stroke-linecap="round"/><path d="m8.998 28.539-6.63 3.041-1.56-4.938 5.904-2.676 2.286 4.573Z" fill="#898989"/><path d="m8.998 28.539-6.63 3.041-1.56-4.938 5.904-2.676 2.286 4.573Z" fill="#fff" fill-opacity=".2"/></symbol><symbol fill="none" viewBox="0 0 60 50" id="purple_cow_hello" xmlns="http://www.w3.org/2000/svg"><path d="M19.095-.001c-2.345 0-2.09 4.64-2.582 6.863l5.534-1.378C21.677 3.654 21 0 19.095 0ZM40.941-.001c2.538 0 2.055 4.64 2.538 6.862L38.04 5.484C38.403 3.654 39 0 40.941 0Z" fill="#546DDB"/><path d="M52.35 27.499c-.36.96-1.35 3.3-3 4.05l2.4 8.4c3.15-2.25 5.58-7.38 5.7-9.3.15-2.4-4.65-4.35-5.1-3.15Z" fill="#FEFEFE"/><path d="M52.35 27.499c-.36.96-1.35 3.3-3 4.05l2.4 8.4c3.15-2.25 5.58-7.38 5.7-9.3.15-2.4-4.65-4.35-5.1-3.15Z" stroke="#898989" stroke-width=".999" stroke-linecap="round" stroke-linejoin="round"/><path d="M52.35 27.499c-.36.96-1.35 3.3-3 4.05l2.4 8.4c3.15-2.25 5.58-7.38 5.7-9.3.15-2.4-4.65-4.35-5.1-3.15Z" stroke="#fff" stroke-opacity=".4" stroke-width=".999" stroke-linecap="round" stroke-linejoin="round"/><path d="M11.718 5.484C9.8 5.484 7.107 6.268 6 6.66c.369 1.242 1.586 3.922 3.504 4.706 1.919.784 4.735.719 5.903.588-.738.915-2.509 3.726-3.69 7.647-1.18 3.922-1.72 9.085-1.844 11.177-.553 1.11-1.807 4.353-2.397 8.431-.59 4.079-.615 8.89-.554 10.784h46.48c-.06-2.091-.331-7.176-.922-10.784-.59-3.608-1.844-7.124-2.397-8.431-.123-2.353-.627-7.883-1.66-11.177-1.033-3.294-2.89-6.47-3.69-7.647 1.107-.261 3.69-.588 4.98-1.372 1.216-.739 2.521-2.81 2.952-3.922-1.23-.261-4.095-.784-5.718-.784-1.623 0-3.136.523-3.689.784-2.398-.654-8.521-1.96-13.833-1.96-5.312 0-10.944 1.306-13.096 1.96-.738-.392-2.693-1.176-4.611-1.176Z" fill="#FEFEFE"/><path d="M30.321 35.92c-9.073.203-12.349 9.398-12.853 13.97h25.454c-.42-4.741-3.528-14.174-12.6-13.97Z" fill="#D0333D"/><path d="M30.321 35.92c-9.073.203-12.349 9.398-12.853 13.97h25.454c-.42-4.741-3.528-14.174-12.6-13.97Z" fill="#fff" fill-opacity=".9"/><path d="M32 9.397c-2.213-1.255-2.623-3.541-2.5-4.652 1.25 0 4.382-.133 7.48.338 3.1.47 5.572.98 6.433 1.372 1.476-.588 2.561-1.12 5.718-.784 1.844.196 3.627.588 3.689.784-.369.98-1.291 3.334-2.582 4.118-1.291.784-4.488 1.422-5.488 1.422.245.261.762.877 1.5 2.25.69 1.285 1.5 3.25 1.75 4.25-1.353-.589-3.296-1.843-4.956-3.02-1.923-1.362-4.157-3.53-4.772-4.314-1.169-.065-4.058-.51-6.271-1.764Z" fill="#546DDB"/><path d="M32 9.397c-2.213-1.255-2.623-3.541-2.5-4.652 1.25 0 4.382-.133 7.48.338 3.1.47 5.572.98 6.433 1.372 1.476-.588 2.561-1.12 5.718-.784 1.844.196 3.627.588 3.689.784-.369.98-1.291 3.334-2.582 4.118-1.291.784-4.488 1.422-5.488 1.422.245.261.762.877 1.5 2.25.69 1.285 1.5 3.25 1.75 4.25-1.353-.589-3.296-1.843-4.956-3.02-1.923-1.362-4.157-3.53-4.772-4.314-1.169-.065-4.058-.51-6.271-1.764Z" fill="#fff" fill-opacity=".4"/><path d="M29.793 17.642c-4.98 0-9.59 2.549-9.59 6.862 0 4.314 6.27 5.883 9.96 5.883 4.61 0 9.222-2.353 9.222-5.883s-4.612-6.862-9.592-6.862Z" fill="#CE4317"/><path d="M29.793 17.642c-4.98 0-9.59 2.549-9.59 6.862 0 4.314 6.27 5.883 9.96 5.883 4.61 0 9.222-2.353 9.222-5.883s-4.612-6.862-9.592-6.862Z" fill="#fff" fill-opacity=".8"/><ellipse cx="20.571" cy="16.269" rx="1.66" ry="1.765" fill="#898989"/><ellipse cx="20.571" cy="16.269" rx="1.66" ry="1.765" fill="#000" fill-opacity=".8"/><ellipse cx="39.016" cy="16.269" rx="1.66" ry="1.765" fill="#898989"/><ellipse cx="39.016" cy="16.269" rx="1.66" ry="1.765" fill="#000" fill-opacity=".8"/><ellipse cx="32.238" cy="20.483" rx=".738" ry=".784" fill="#898989"/><ellipse cx="32.238" cy="20.483" rx=".738" ry=".784" fill="#000" fill-opacity=".6"/><ellipse cx="27.138" cy="20.483" rx=".738" ry=".784" fill="#898989"/><ellipse cx="27.138" cy="20.483" rx=".738" ry=".784" fill="#000" fill-opacity=".6"/><path d="M28.65 24.2s.156.9 1.2.9 1.2-.9 1.2-.9" stroke="#898989" stroke-width=".9" stroke-linecap="round"/><path d="M28.65 24.2s.156.9 1.2.9 1.2-.9 1.2-.9" stroke="#000" stroke-opacity=".6" stroke-width=".9" stroke-linecap="round"/><path d="M16.329 34.307c1.107.98 2.398 2.549 3.32 4.313.99 1.894 1.291 4.902-2.029 4.902-2.656 0-4.55-2.483-5.164-3.725" stroke="#898989" stroke-width=".998" stroke-linecap="round"/><path d="M16.329 34.307c1.107.98 2.398 2.549 3.32 4.313.99 1.894 1.291 4.902-2.029 4.902-2.656 0-4.55-2.483-5.164-3.725" stroke="#fff" stroke-opacity=".4" stroke-width=".998" stroke-linecap="round"/><path d="M13.533 25.28c-.368-2.157-1.537-3.399-2.213-3.725-.246.784-.702 3.223-.922 5.098-.185 1.568-.308 3.333-.37 3.921-.122.262-.614 1.373-1.106 2.942-.492 1.568-.738 2.549-.922 3.529 1.783-.065 4.796 0 5.902-3.53.923-2.94 0-4.51-.553-5.098.184-.392.416-1.783.184-3.137Z" fill="#546DDB"/><path d="M13.533 25.28c-.368-2.157-1.537-3.399-2.213-3.725-.246.784-.702 3.223-.922 5.098-.185 1.568-.308 3.333-.37 3.921-.122.262-.614 1.373-1.106 2.942-.492 1.568-.738 2.549-.922 3.529 1.783-.065 4.796 0 5.902-3.53.923-2.94 0-4.51-.553-5.098.184-.392.416-1.783.184-3.137Z" fill="#fff" fill-opacity=".4"/><path d="M49.315 39.592c0-2.98 1.476-4.64 2.214-5.098.307.915 1.033 3.451 1.475 6.275.443 2.823.43 5.62.37 6.666-1.353-1.372-4.059-4.862-4.059-7.843Z" fill="#546DDB"/><path d="M49.315 39.592c0-2.98 1.476-4.64 2.214-5.098.307.915 1.033 3.451 1.475 6.275.443 2.823.43 5.62.37 6.666-1.353-1.372-4.059-4.862-4.059-7.843Z" fill="#fff" fill-opacity=".4"/><path d="m20 38.244-4.5 5.24 3.873 3.334 4.243-4.902L20 38.244Z" fill="#898989"/><path d="m20 38.244-4.5 5.24 3.873 3.334 4.243-4.902L20 38.244Z" fill="#fff" fill-opacity=".2"/><path d="M51.3 29.6c-.6 1.2-2.1 2.7-3.45 3.15" stroke="#898989" stroke-width=".999" stroke-linecap="round"/><path d="M51.3 29.6c-.6 1.2-2.1 2.7-3.45 3.15" stroke="#fff" stroke-opacity=".4" stroke-width=".999" stroke-linecap="round"/><path d="m50.998 29.137 6.59 3.04 1.55-4.937-5.868-2.676-2.272 4.573Z" fill="#898989"/><path d="m50.998 29.137 6.59 3.04 1.55-4.937-5.868-2.676-2.272 4.573Z" fill="#fff" fill-opacity=".2"/></symbol><symbol fill="none" viewBox="0 0 40 40" id="remove" xmlns="http://www.w3.org/2000/svg"><path fill-rule="evenodd" clip-rule="evenodd" d="M4.628 4c-1.093 0-1.64 1.111-1.64 1.667 0 .555.547 1.666 1.64 1.666h1.093l1 28.334c0 1.11.656 1.777 1.094 2.222C8.252 38.333 8.907 39 10 39h19.5c1.093 0 1.917-.667 2.354-1.111.437-.445 1.093-1.111 1.093-2.222l1.184-28.334h1.093c1.093 0 1.639-1.11 1.639-1.666 0-.445-.546-1.667-1.64-1.667H4.629Zm9.834 7.195a1.1 1.1 0 0 0-1.119-1.084 1.103 1.103 0 0 0-1.066 1.138l.547 22.778a1.1 1.1 0 0 0 1.119 1.084 1.103 1.103 0 0 0 1.065-1.138l-.546-22.778Zm13.113.054a1.103 1.103 0 0 0-1.066-1.138 1.1 1.1 0 0 0-1.12 1.084l-.546 22.778a1.103 1.103 0 0 0 1.066 1.138 1.1 1.1 0 0 0 1.12-1.084l.546-22.778Zm-6.556-.027c0-.613-.49-1.11-1.093-1.11s-1.093.497-1.093 1.11V34c0 .614.49 1.111 1.093 1.111.604 0 1.093-.497 1.093-1.11V11.221Z" fill="#898989"/><path fill-rule="evenodd" clip-rule="evenodd" d="M4.628 4c-1.093 0-1.64 1.111-1.64 1.667 0 .555.547 1.666 1.64 1.666h1.093l1 28.334c0 1.11.656 1.777 1.094 2.222C8.252 38.333 8.907 39 10 39h19.5c1.093 0 1.917-.667 2.354-1.111.437-.445 1.093-1.111 1.093-2.222l1.184-28.334h1.093c1.093 0 1.639-1.11 1.639-1.666 0-.445-.546-1.667-1.64-1.667H4.629Zm9.834 7.195a1.1 1.1 0 0 0-1.119-1.084 1.103 1.103 0 0 0-1.066 1.138l.547 22.778a1.1 1.1 0 0 0 1.119 1.084 1.103 1.103 0 0 0 1.065-1.138l-.546-22.778Zm13.113.054a1.103 1.103 0 0 0-1.066-1.138 1.1 1.1 0 0 0-1.12 1.084l-.546 22.778a1.103 1.103 0 0 0 1.066 1.138 1.1 1.1 0 0 0 1.12-1.084l.546-22.778Zm-6.556-.027c0-.613-.49-1.11-1.093-1.11s-1.093.497-1.093 1.11V34c0 .614.49 1.111 1.093 1.111.604 0 1.093-.497 1.093-1.11V11.221Z" fill="#fff" fill-opacity=".95"/><path d="M14.944 4.982c0-1.107.399-3.986 1.993-3.986h5.978c1.195 0 1.992 2.657 1.992 3.986" stroke="#898989" stroke-width="1.993"/><path d="M14.944 4.982c0-1.107.399-3.986 1.993-3.986h5.978c1.195 0 1.992 2.657 1.992 3.986" stroke="#fff" stroke-opacity=".95" stroke-width="1.993"/></symbol><symbol fill="none" viewBox="0 0 40 40" id="rules" xmlns="http://www.w3.org/2000/svg"><path d="M17 24H2c.833 1.667 3.5 5 7.5 5s6.667-3.333 7.5-5ZM38 24H23c.833 1.667 3.5 5 7.5 5s6.667-3.333 7.5-5Z" fill="#2FC4A7"/><path d="M3 24 9.5 9 16 24M24 24l6.5-15L37 24" stroke="#2FC4A7" stroke-linecap="round"/><circle cx="20" cy="3" r="2" fill="#2FC4A7"/><path fill="#2FC4A7" d="M19 6h2v27h-2zM13 35a2 2 0 0 1 2-2h10a2 2 0 0 1 2 2H13Z"/><path d="M6 6c.491.333 2.21 1 5.158 1C14.842 7 15.21 6 20 6c4.79 0 5.895 1 8.842 1C31.2 7 33.263 6.333 34 6" stroke="#2FC4A7" stroke-width="2" stroke-linecap="round"/><path d="M9 37a2 2 0 0 1 2-2h18a2 2 0 0 1 2 2v1H9v-1Z" fill="#2FC4A7"/></symbol><symbol fill="none" viewBox="0 0 40 40" id="settings" xmlns="http://www.w3.org/2000/svg"><path fill-rule="evenodd" clip-rule="evenodd" d="M12.758 7.505a14.353 14.353 0 0 1 3.528-1.462l1.098-4.864a19.169 19.169 0 0 1 5.231 0l1.099 4.863c1.25.332 2.435.827 3.529 1.462l4.215-2.661a19.111 19.111 0 0 1 3.7 3.699l-2.662 4.214a14.352 14.352 0 0 1 1.463 3.53l4.862 1.099a19.167 19.167 0 0 1 0 5.23l-4.862 1.099a14.35 14.35 0 0 1-1.463 3.53l2.661 4.215a19.11 19.11 0 0 1-3.699 3.699l-4.215-2.662a14.356 14.356 0 0 1-3.53 1.462l-1.098 4.864a19.166 19.166 0 0 1-5.23 0l-1.1-4.865a14.352 14.352 0 0 1-3.527-1.462l-4.216 2.662a19.112 19.112 0 0 1-3.7-3.699l2.663-4.217a14.354 14.354 0 0 1-1.461-3.526l-4.865-1.1a19.168 19.168 0 0 1 0-5.23l4.865-1.1c.331-1.25.827-2.433 1.461-3.526L4.842 8.542a19.112 19.112 0 0 1 3.7-3.7l4.216 2.663ZM20 26.08a6.08 6.08 0 1 0 0-12.16 6.08 6.08 0 0 0 0 12.16Z" fill="#1D8CE0"/><path fill-rule="evenodd" clip-rule="evenodd" d="M12.758 7.505a14.353 14.353 0 0 1 3.528-1.462l1.098-4.864a19.169 19.169 0 0 1 5.231 0l1.099 4.863c1.25.332 2.435.827 3.529 1.462l4.215-2.661a19.111 19.111 0 0 1 3.7 3.699l-2.662 4.214a14.352 14.352 0 0 1 1.463 3.53l4.862 1.099a19.167 19.167 0 0 1 0 5.23l-4.862 1.099a14.35 14.35 0 0 1-1.463 3.53l2.661 4.215a19.11 19.11 0 0 1-3.699 3.699l-4.215-2.662a14.356 14.356 0 0 1-3.53 1.462l-1.098 4.864a19.166 19.166 0 0 1-5.23 0l-1.1-4.865a14.352 14.352 0 0 1-3.527-1.462l-4.216 2.662a19.112 19.112 0 0 1-3.7-3.699l2.663-4.217a14.354 14.354 0 0 1-1.461-3.526l-4.865-1.1a19.168 19.168 0 0 1 0-5.23l4.865-1.1c.331-1.25.827-2.433 1.461-3.526L4.842 8.542a19.112 19.112 0 0 1 3.7-3.7l4.216 2.663ZM20 26.08a6.08 6.08 0 1 0 0-12.16 6.08 6.08 0 0 0 0 12.16Z" fill="#fff" fill-opacity=".4"/></symbol><symbol fill="none" viewBox="0 0 40 40" id="shop" xmlns="http://www.w3.org/2000/svg"><path d="M13.197 17c-.6-5-.18-15 6.303-15S26 11 26 17" stroke="#7445B8" stroke-width="2"/><path d="M36.4 16H3.561a2 2 0 0 0-1.94 2.485l4.5 18A2 2 0 0 0 8.061 38h23.554a2 2 0 0 0 1.933-1.486l4.783-18A2 2 0 0 0 36.399 16Z" fill="#7445B8"/><path d="M36.4 16H3.561a2 2 0 0 0-1.94 2.485l4.5 18A2 2 0 0 0 8.061 38h23.554a2 2 0 0 0 1.933-1.486l4.783-18A2 2 0 0 0 36.399 16Z" fill="#fff" fill-opacity=".6"/><circle cx="13" cy="22" r="1.5" fill="#7445B8" stroke="#7445B8"/><circle cx="26" cy="22" r="1.5" fill="#7445B8" stroke="#7445B8"/></symbol><symbol fill="none" viewBox="0 0 40 40" id="social" xmlns="http://www.w3.org/2000/svg"><g clip-path="url(#bma)"><circle cx="9.137" cy="9.137" fill="#2FC4A7" r="5.71"/><circle cx="9.137" cy="9.137" fill="#fff" fill-opacity=".4" r="5.71"/><path d="M.063 26.442c-.569-1.193 2.843-7.757 5.117-9.547 1.705-1.193 6.822-1.193 8.528 0 .946.662 6.822 7.16 6.253 7.757-.454.478-4.548-2.188-6.253-3.58.568 5.967 1.478 17.901.568 17.901-1.137 0-3.98-8.95-5.117-8.95s-3.98 9.547-5.116 8.95c-.91-.477.379-12.133 1.137-17.901C3.664 23.26.518 27.397.063 26.442Z" fill="#2FC4A7"/><path d="M.063 26.442c-.569-1.193 2.843-7.757 5.117-9.547 1.705-1.193 6.822-1.193 8.528 0 .946.662 6.822 7.16 6.253 7.757-.454.478-4.548-2.188-6.253-3.58.568 5.967 1.478 17.901.568 17.901-1.137 0-3.98-8.95-5.117-8.95s-3.98 9.547-5.116 8.95c-.91-.477.379-12.133 1.137-17.901C3.664 23.26.518 27.397.063 26.442Z" fill="#000" fill-opacity=".2"/><circle cx="29.088" cy="7.088" r="6.088" fill="#1D8CE0"/><circle cx="29.088" cy="7.088" r="6.088" fill="#fff" fill-opacity=".4"/><path d="M39.973 25.35c.625-1.297-3.127-8.431-5.628-10.377-1.877-1.297-7.505-1.297-9.381 0-1.04.72-7.547 9.378-6.922 10.027.5.519 5.5-3.5 6.922-5.487-.625 6.486-1.626 19.458-.625 19.458 1.25 0 4.377-9.73 5.628-9.73 1.25 0 4.378 10.378 5.628 9.73 1.001-.52-.416-13.188-1.25-19.458 1.667 2.378 5.128 6.875 5.628 5.837Z" fill="#1D8CE0"/></g><defs><clipPath id="bma"><path fill="#fff" d="M0 0h40v40H0z"/></clipPath></defs></symbol><symbol fill="none" viewBox="0 0 40 40" id="stats" xmlns="http://www.w3.org/2000/svg"><path d="M1.5 15.44 19.798 3 38.5 15.44 31 37H9L1.5 15.44Z" stroke="#FAA21E" stroke-width="2"/><path d="M1.5 15.44 19.798 3 38.5 15.44 31 37H9L1.5 15.44Z" stroke="#fff" stroke-opacity=".4" stroke-width="2"/><path d="m30 19.5-8 2.227 6.933 8.773L30 19.5ZM13 32l7.143-9L28.5 34 13 32ZM18 21.571 7 18l4.5 12 6.5-8.429ZM19 11 8 16.625 19 20v-9ZM21 20v-9l8 6.75L21 20Z" fill="#FAA21E"/></symbol><symbol fill="none" viewBox="0 0 40 40" id="switch_character" xmlns="http://www.w3.org/2000/svg"><path d="M13.5 14.64c0 3.471 2.766 5.64 4.156 5.64v2.459c-1.853 0-4.797.925-5.91 2.314C10.634 26.44 11 28.36 11 34c6.956 2.812 11.044 2.49 18-.5 0-5.165.452-7.01-1.084-8.447-1.536-1.438-4.65-2.314-6.041-2.314V20.28c2.318 0 4.625-2.603 4.625-5.64C26.5 11.603 24.333 8 20 8c-3.583 0-6.5 3.603-6.5 6.64Z" fill="#7445B8"/><path d="M13.5 14.64c0 3.471 2.766 5.64 4.156 5.64v2.459c-1.853 0-4.797.925-5.91 2.314C10.634 26.44 11 28.36 11 34c6.956 2.812 11.044 2.49 18-.5 0-5.165.452-7.01-1.084-8.447-1.536-1.438-4.65-2.314-6.041-2.314V20.28c2.318 0 4.625-2.603 4.625-5.64C26.5 11.603 24.333 8 20 8c-3.583 0-6.5 3.603-6.5 6.64Z" fill="#fff" fill-opacity=".2"/><path d="M36 20c0-8.837-7.163-16-16-16-5.922 0-11.093 3.218-13.86 8M4 20c0 8.837 7.163 16 16 16 5.726 0 10.75-3.008 13.576-7.53" stroke="#7445B8" stroke-width="2.824"/><path d="M36 20c0-8.837-7.163-16-16-16-5.922 0-11.093 3.218-13.86 8M4 20c0 8.837 7.163 16 16 16 5.726 0 10.75-3.008 13.576-7.53" stroke="#fff" stroke-opacity=".8" stroke-width="2.824"/><path d="m39 17-3 4-4-3.5" stroke="#7445B8" stroke-width="2" stroke-linecap="round"/><path d="m39 17-3 4-4-3.5" stroke="#fff" stroke-opacity=".8" stroke-width="2" stroke-linecap="round"/><path d="m1 23.91 2.771-4.536 4.059 2.92" stroke="#7445B8" stroke-width="2" stroke-linecap="round"/><path d="m1 23.91 2.771-4.536 4.059 2.92" stroke="#fff" stroke-opacity=".8" stroke-width="2" stroke-linecap="round"/></symbol><symbol fill="none" viewBox="0 0 50 50" id="task_block_slot" xmlns="http://www.w3.org/2000/svg"><circle cx="25" cy="25" r="20.24" stroke="#A272E4" stroke-width="5.52"/><path d="m39.875 10.28-29.308 29.9" stroke="#A272E4" stroke-width="5.52"/></symbol><symbol fill="none" viewBox="0 0 50 50" id="task_cooldown" xmlns="http://www.w3.org/2000/svg"><circle cx="25" cy="25" r="23" fill="#7445B8"/><circle cx="25" cy="25" r="23" fill="#fff" fill-opacity=".2"/><path d="M48 25H25V2c4.5 0 11.2 1.7 16 6.5 4.8 4.8 7 10.5 7 16.5Z" fill="#7445B8"/><path d="M48 25H25V2c4.5 0 11.2 1.7 16 6.5 4.8 4.8 7 10.5 7 16.5Z" fill="#fff" fill-opacity=".6"/><path fill-rule="evenodd" clip-rule="evenodd" d="M25 4.875c.695 0 1.258.563 1.258 1.258v5.031a1.258 1.258 0 0 1-2.516 0V6.133c0-.695.563-1.258 1.258-1.258ZM25 37.578c.695 0 1.258.563 1.258 1.258v5.031a1.258 1.258 0 1 1-2.516 0v-5.031c0-.695.563-1.258 1.258-1.258ZM45.125 25c0 .695-.563 1.258-1.258 1.258h-5.031a1.258 1.258 0 1 1 0-2.516h5.031c.695 0 1.258.563 1.258 1.258ZM12.422 25c0 .695-.563 1.258-1.258 1.258H6.133a1.258 1.258 0 1 1 0-2.516h5.031c.695 0 1.258.563 1.258 1.258Z" fill="#152242"/><path d="m36 5.5-8.5.5 3.5 7.5 5-8Z" fill="#7445B8"/><path d="m36 5.5-8.5.5 3.5 7.5 5-8Z" fill="#000" fill-opacity=".2"/><circle cx="25" cy="25" r="3" fill="#152242"/><path d="M42 20c-.468-1.922-1.871-5.765-5.146-8.456C33.579 8.854 32 9.001 32 9.001" stroke="#7445B8" stroke-width="4" stroke-linecap="round"/><path d="M42 20c-.468-1.922-1.871-5.765-5.146-8.456C33.579 8.854 32 9.001 32 9.001" stroke="#000" stroke-opacity=".2" stroke-width="4" stroke-linecap="round"/></symbol><symbol fill="none" viewBox="0 0 50 50" id="task_scroll" xmlns="http://www.w3.org/2000/svg"><path d="M10 48h29.209c.854 0 2.903-1.067 3.587-3.2.82-2.56-1.025-4.267-2.05-4.8H11.025c1.195.356 3.075 2.133 2.562 4.267C13.075 46.4 11.196 47.467 10 48Z" fill="#7445B8"/><path d="M39.673 2H16.234c-.532 4.035-2.13 13.17-4.261 17.432-2.664 5.326-6.393 9.684-6.925 18.4C4.62 44.804 7.138 46.063 9.269 48h28.806c-3.236-1.937-4.728-4.261-4.302-9.684.533-6.78 5.367-14.527 6.965-18.4C42.337 16.042 45 10.716 45 6.358 45 2.872 41.449 2 39.673 2Z" fill="#7445B8"/><path d="M39.673 2H16.234c-.532 4.035-2.13 13.17-4.261 17.432-2.664 5.326-6.393 9.684-6.925 18.4C4.62 44.804 7.138 46.063 9.269 48h28.806c-3.236-1.937-4.728-4.261-4.302-9.684.533-6.78 5.367-14.527 6.965-18.4C42.337 16.042 45 10.716 45 6.358 45 2.872 41.449 2 39.673 2Z" fill="#fff" fill-opacity=".2"/><path d="M41 2H11.791c-.854 0-2.903 1.067-3.587 3.2-.82 2.56 1.025 4.267 2.05 4.8h29.721c-1.196-.356-3.1-2.5-2.642-4.5C37.792 3.5 39.167 2 41 2Z" fill="#7445B8"/><path d="M41 2H11.791c-.854 0-2.903 1.067-3.587 3.2-.82 2.56 1.025 4.267 2.05 4.8h29.721c-1.196-.356-3.1-2.5-2.642-4.5C37.792 3.5 39.167 2 41 2Z" fill="#fff" fill-opacity=".6"/><path d="M14.82 22.477 19 29.5l13.727-8.266" stroke="#7445B8" stroke-width="4"/><path d="M14.82 22.477 19 29.5l13.727-8.266" stroke="#fff" stroke-opacity=".95" stroke-width="4"/></symbol><symbol fill="none" viewBox="0 0 40 40" id="tasks" xmlns="http://www.w3.org/2000/svg"><path d="M40 2H0v4h40V2Z" fill="#FAA21E"/><path d="M40 2H0v4h40V2Z" fill="#000" fill-opacity=".1"/><path d="m20 32 16 8V2c-.311-1.016-.68-1.489-2-2H6C4.686.249 4.23.667 4 2v38l16-8Z" fill="#7445B8"/><path d="m20 32 16 8V2c-.311-1.016-.68-1.489-2-2H6C4.686.249 4.23.667 4 2v38l16-8Z" fill="#fff" fill-opacity=".2"/><path fill-rule="evenodd" clip-rule="evenodd" d="M29 13.777 17.216 23 11 16.434l2.905-2.4 3.715 3.924L26.51 11 29 13.777Z" fill="#7445B8"/><path fill-rule="evenodd" clip-rule="evenodd" d="M29 13.777 17.216 23 11 16.434l2.905-2.4 3.715 3.924L26.51 11 29 13.777Z" fill="#fff" fill-opacity=".95"/><path fill-rule="evenodd" clip-rule="evenodd" d="M8 38V0H6C4.686.249 4.23.667 4 2v38l4-2ZM34 0c1.32.511 1.689.984 2 2v38l-4-2V0h2Z" fill="#7445B8"/><path fill-rule="evenodd" clip-rule="evenodd" d="M8 38V0H6C4.686.249 4.23.667 4 2v38l4-2ZM34 0c1.32.511 1.689.984 2 2v38l-4-2V0h2Z" fill="#fff" fill-opacity=".6"/></symbol><symbol fill="none" viewBox="0 0 40 40" id="test_server" xmlns="http://www.w3.org/2000/svg"><circle cx="21" cy="21" r="2" fill="#FEFEFE"/><circle cx="19.5" cy="8.5" r="2.5" fill="#FEFEFE"/><path d="M30.421 24H9.58L2 35l.474 3h35.052L38 35l-7.579-11Z" fill="#546DDB"/><path d="M13.943 19.534a.75.75 0 0 0 .157-.452l.164-17.332h11.452l.184 17.333a.75.75 0 0 0 .157.45l11.437 14.803c.584.871.835 1.72.734 2.376-.087.566-.462 1.151-1.545 1.538H3.301c-1.05-.391-1.432-.977-1.526-1.55-.107-.656.131-1.5.71-2.363l11.458-14.803Z" fill="#FEFEFE" fill-opacity=".15" stroke="#FEFEFE" stroke-width="1.5" stroke-linejoin="round"/><circle cx="27" cy="30" r="3" fill="#FEFEFE"/><circle cx="13.5" cy="32.5" r="2.5" fill="#FEFEFE"/></symbol><symbol fill="none" viewBox="0 0 15 15" id="triangle_collapsed" xmlns="http://www.w3.org/2000/svg"><path d="M11.071 7.471 4 .4v14.142l7.071-7.071Z" fill="#FEFEFE"/></symbol><symbol fill="none" viewBox="0 0 15 15" id="triangle_expanded" xmlns="http://www.w3.org/2000/svg"><g clip-path="url(#bva)"><path d="M12 12V2L2 12h10Z" fill="#FEFEFE"/></g><defs><clipPath id="bva"><path fill="#fff" d="M0 0h15v15H0z"/></clipPath></defs></symbol><symbol fill="none" viewBox="0 0 15 20" id="up_arrow" xmlns="http://www.w3.org/2000/svg"><path d="M8.19.31a.975.975 0 0 0-1.38 0L.609 6.515a.975.975 0 1 0 1.378 1.378L7.5 2.378l5.514 5.514a.975.975 0 1 0 1.378-1.378L8.189.31ZM8.474 20V1h-1.95v19h1.95Z" fill="#000"/></symbol><symbol fill="none" viewBox="0 0 40 40" id="wiki" xmlns="http://www.w3.org/2000/svg"><rect x="3" y="3" width="34" height="34" rx="8" fill="#546DDB"/><path d="M14.776 31c-.384 0-.744-.108-1.08-.324a1.88 1.88 0 0 1-.648-.864L7.72 13.828c-.192-.744-.192-1.344 0-1.8.216-.48.672-.72 1.368-.72.456 0 .828.132 1.116.396.312.24.564.66.756 1.26l4.536 14.184h-1.26l4.284-14.472c.12-.408.324-.732.612-.972.288-.264.684-.396 1.188-.396.48 0 .864.132 1.152.396.312.24.516.564.612.972l3.492 13.608h-.54l4.248-13.32c.336-1.104.96-1.656 1.872-1.656.672 0 1.128.24 1.368.72.24.456.228 1.056-.036 1.8L27.16 29.812c-.096.336-.3.624-.612.864a1.85 1.85 0 0 1-1.08.324c-.384 0-.744-.108-1.08-.324-.336-.24-.552-.528-.648-.864l-3.708-13.716h.36l-3.888 13.716c-.096.336-.312.624-.648.864a1.85 1.85 0 0 1-1.08.324Z" fill="#fff"/></symbol></svg>